<?xml version='1.0' encoding='utf-8'?>
<svg xmlns="http://www.w3.org/2000/svg" xmlns:cc="http://creativecommons.org/ns#" xmlns:dc="http://purl.org/dc/elements/1.1/" xmlns:rdf="http://www.w3.org/1999/02/22-rdf-syntax-ns#" xmlns:xlink="http://www.w3.org/1999/xlink" width="504pt" height="388.8pt" viewBox="0 0 504 388.8" version="1.1" data-axis-left="52.92" data-axis-width="441" data-axis-max="50" role="group" data-rpent-interactive="1">
 <title>libero-pro-six-non-long-en-dark</title>
 <metadata>
  <rdf:RDF>
   <cc:Work>
    <dc:type rdf:resource="http://purl.org/dc/dcmitype/StillImage" />
    <dc:title>libero-pro-six-non-long-en-dark</dc:title>
    <dc:description>RATS : 43.8%; Cap-X : 18.2%; Y-axis: 0–50%
{"record_ids": ["libero-pro-six-non-long--rats", "libero-pro-six-non-long--cap-x"], "source_note": {"en": "Table 3", "zh": "表 3"}, "subtitle": ["Spatial/Object/Goal only · external reports", "仅 Spatial/Object/Goal · 外部报告"], "title": {"en": "LIBERO-PRO · six non-Long items", "zh": "LIBERO-PRO · 六个非 Long 分项"}}</dc:description>
    <dc:format>image/svg+xml</dc:format>
    <dc:creator>
     <cc:Agent>
      <dc:title>RPent leaderboard renderer</dc:title>
     </cc:Agent>
    </dc:creator>
   </cc:Work>
  </rdf:RDF>
 </metadata>
 <defs>
  <style type="text/css">*{stroke-linejoin: round; stroke-linecap: butt}</style>
 <path id="TimesNewRomanPSMT-35" d="M 4325 0  L 3194 0  L 1759 1981  Q 1600 1975 1500 1975  Q 1459 1975 1412 1976  Q 1366 1978 1316 1981  L 1316 750  Q 1316 350 1403 253  Q 1522 116 1759 116  L 1925 116  L 1925 0  L 109 0  L 109 116  L 269 116  Q 538 116 653 291  Q 719 388 719 750  L 719 3488  Q 719 3888 631 3984  Q 509 4122 269 4122  L 109 4122  L 109 4238  L 1653 4238  Q 2328 4238 2648 4139  Q 2969 4041 3192 3777  Q 3416 3513 3416 3147  Q 3416 2756 3161 2468  Q 2906 2181 2372 2063  L 3247 847  Q 3547 428 3762 290  Q 3978 153 4325 116  L 4325 0  z M 1316 2178  Q 1375 2178 1419 2176  Q 1463 2175 1491 2175  Q 2097 2175 2405 2437  Q 2713 2700 2713 3106  Q 2713 3503 2464 3751  Q 2216 4000 1806 4000  Q 1625 4000 1316 3941  L 1316 2178  z " transform="scale(0.015625)" />
        <path id="TimesNewRomanPSMT-24" d="M 2928 1419  L 1288 1419  L 1000 750  Q 894 503 894 381  Q 894 284 986 211  Q 1078 138 1384 116  L 1384 0  L 50 0  L 50 116  Q 316 163 394 238  Q 553 388 747 847  L 2238 4334  L 2347 4334  L 3822 809  Q 4000 384 4145 257  Q 4291 131 4550 116  L 4550 0  L 2878 0  L 2878 116  Q 3131 128 3220 200  Q 3309 272 3309 375  Q 3309 513 3184 809  L 2928 1419  z M 2841 1650  L 2122 3363  L 1384 1650  L 2841 1650  z " transform="scale(0.015625)" />
        <path id="TimesNewRomanPSMT-37" d="M 3703 4238  L 3750 3244  L 3631 3244  Q 3597 3506 3538 3619  Q 3441 3800 3280 3886  Q 3119 3972 2856 3972  L 2259 3972  L 2259 734  Q 2259 344 2344 247  Q 2463 116 2709 116  L 2856 116  L 2856 0  L 1059 0  L 1059 116  L 1209 116  Q 1478 116 1591 278  Q 1659 378 1659 734  L 1659 3972  L 1150 3972  Q 853 3972 728 3928  Q 566 3869 450 3700  Q 334 3531 313 3244  L 194 3244  L 244 4238  L 3703 4238  z " transform="scale(0.015625)" />
        <path id="TimesNewRomanPSMT-36" d="M 2934 4334  L 2934 2869  L 2819 2869  Q 2763 3291 2617 3541  Q 2472 3791 2203 3937  Q 1934 4084 1647 4084  Q 1322 4084 1109 3886  Q 897 3688 897 3434  Q 897 3241 1031 3081  Q 1225 2847 1953 2456  Q 2547 2138 2764 1967  Q 2981 1797 3098 1565  Q 3216 1334 3216 1081  Q 3216 600 2842 251  Q 2469 -97 1881 -97  Q 1697 -97 1534 -69  Q 1438 -53 1133 45  Q 828 144 747 144  Q 669 144 623 97  Q 578 50 556 -97  L 441 -97  L 441 1356  L 556 1356  Q 638 900 775 673  Q 913 447 1195 297  Q 1478 147 1816 147  Q 2206 147 2432 353  Q 2659 559 2659 841  Q 2659 997 2573 1156  Q 2488 1316 2306 1453  Q 2184 1547 1640 1851  Q 1097 2156 867 2337  Q 638 2519 519 2737  Q 400 2956 400 3219  Q 400 3675 750 4004  Q 1100 4334 1641 4334  Q 1978 4334 2356 4169  Q 2531 4091 2603 4091  Q 2684 4091 2736 4139  Q 2788 4188 2819 4334  L 2934 4334  z " transform="scale(0.015625)" />
       <path id="TimesNewRomanPSMT-26" d="M 3853 4334  L 3950 2894  L 3853 2894  Q 3659 3541 3300 3825  Q 2941 4109 2438 4109  Q 2016 4109 1675 3895  Q 1334 3681 1139 3212  Q 944 2744 944 2047  Q 944 1472 1128 1050  Q 1313 628 1683 403  Q 2053 178 2528 178  Q 2941 178 3256 354  Q 3572 531 3950 1056  L 4047 994  Q 3728 428 3303 165  Q 2878 -97 2294 -97  Q 1241 -97 663 684  Q 231 1266 231 2053  Q 231 2688 515 3219  Q 800 3750 1298 4042  Q 1797 4334 2388 4334  Q 2847 4334 3294 4109  Q 3425 4041 3481 4041  Q 3566 4041 3628 4100  Q 3709 4184 3744 4334  L 3853 4334  z " transform="scale(0.015625)" />
        <path id="TimesNewRomanPSMT-44" d="M 1822 413  Q 1381 72 1269 19  Q 1100 -59 909 -59  Q 613 -59 420 144  Q 228 347 228 678  Q 228 888 322 1041  Q 450 1253 767 1440  Q 1084 1628 1822 1897  L 1822 2009  Q 1822 2438 1686 2597  Q 1550 2756 1291 2756  Q 1094 2756 978 2650  Q 859 2544 859 2406  L 866 2225  Q 866 2081 792 2003  Q 719 1925 600 1925  Q 484 1925 411 2006  Q 338 2088 338 2228  Q 338 2497 613 2722  Q 888 2947 1384 2947  Q 1766 2947 2009 2819  Q 2194 2722 2281 2516  Q 2338 2381 2338 1966  L 2338 994  Q 2338 584 2353 492  Q 2369 400 2405 369  Q 2441 338 2488 338  Q 2538 338 2575 359  Q 2641 400 2828 588  L 2828 413  Q 2478 -56 2159 -56  Q 2006 -56 1915 50  Q 1825 156 1822 413  z M 1822 616  L 1822 1706  Q 1350 1519 1213 1441  Q 966 1303 859 1153  Q 753 1003 753 825  Q 753 600 887 451  Q 1022 303 1197 303  Q 1434 303 1822 616  z " transform="scale(0.015625)" />
        <path id="TimesNewRomanPSMT-53" d="M -6 2578  L 875 2934  L 994 2934  L 994 2266  Q 1216 2644 1439 2795  Q 1663 2947 1909 2947  Q 2341 2947 2628 2609  Q 2981 2197 2981 1534  Q 2981 794 2556 309  Q 2206 -88 1675 -88  Q 1444 -88 1275 -22  Q 1150 25 994 166  L 994 -706  Q 994 -1000 1030 -1079  Q 1066 -1159 1155 -1206  Q 1244 -1253 1478 -1253  L 1478 -1369  L -22 -1369  L -22 -1253  L 56 -1253  Q 228 -1256 350 -1188  Q 409 -1153 442 -1076  Q 475 -1000 475 -688  L 475 2019  Q 475 2297 450 2372  Q 425 2447 370 2484  Q 316 2522 222 2522  Q 147 2522 31 2478  L -6 2578  z M 994 2081  L 994 1013  Q 994 666 1022 556  Q 1066 375 1236 237  Q 1406 100 1666 100  Q 1978 100 2172 344  Q 2425 663 2425 1241  Q 2425 1897 2138 2250  Q 1938 2494 1663 2494  Q 1513 2494 1366 2419  Q 1253 2363 994 2081  z " transform="scale(0.015625)" />
        <path id="TimesNewRomanPSMT-10" d="M 259 1672  L 1875 1672  L 1875 1200  L 259 1200  L 259 1672  z " transform="scale(0.015625)" />
        <path id="TimesNewRomanPSMT-3b" d="M 2613 2347  L 3522 991  Q 3900 428 4083 279  Q 4266 131 4547 116  L 4547 0  L 2728 0  L 2728 116  Q 2909 119 2997 153  Q 3063 181 3105 239  Q 3147 297 3147 356  Q 3147 428 3119 500  Q 3097 553 2947 775  L 2228 1863  L 1341 725  Q 1200 544 1172 483  Q 1144 422 1144 356  Q 1144 256 1228 190  Q 1313 125 1550 116  L 1550 0  L 47 0  L 47 116  Q 206 131 322 181  Q 516 263 691 400  Q 866 538 1091 822  L 2091 2084  L 1256 3306  Q 916 3803 678 3958  Q 441 4113 131 4122  L 131 4238  L 2091 4238  L 2091 4122  Q 1841 4113 1748 4041  Q 1656 3969 1656 3881  Q 1656 3766 1806 3544  L 2456 2572  L 3209 3525  Q 3341 3694 3370 3756  Q 3400 3819 3400 3884  Q 3400 3950 3363 4000  Q 3316 4066 3244 4092  Q 3172 4119 2947 4122  L 2947 4238  L 4450 4238  L 4450 4122  Q 4272 4113 4159 4066  Q 3991 3994 3850 3872  Q 3709 3750 3453 3422  L 2613 2347  z " transform="scale(0.015625)" />
       <path id="TimesNewRomanPSMT-13" d="M 231 2094  Q 231 2819 450 3342  Q 669 3866 1031 4122  Q 1313 4325 1613 4325  Q 2100 4325 2488 3828  Q 2972 3213 2972 2159  Q 2972 1422 2759 906  Q 2547 391 2217 158  Q 1888 -75 1581 -75  Q 975 -75 572 641  Q 231 1244 231 2094  z M 844 2016  Q 844 1141 1059 588  Q 1238 122 1591 122  Q 1759 122 1940 273  Q 2122 425 2216 781  Q 2359 1319 2359 2297  Q 2359 3022 2209 3506  Q 2097 3866 1919 4016  Q 1791 4119 1609 4119  Q 1397 4119 1231 3928  Q 1006 3669 925 3112  Q 844 2556 844 2016  z " transform="scale(0.015625)" />
        <path id="TimesNewRomanPSMT-8" d="M 4350 4334  L 1263 -175  L 984 -175  L 4072 4334  L 4350 4334  z M 1138 4334  Q 1559 4334 1792 3984  Q 2025 3634 2025 3181  Q 2025 2638 1762 2341  Q 1500 2044 1131 2044  Q 884 2044 678 2180  Q 472 2316 348 2584  Q 225 2853 225 3181  Q 225 3509 350 3786  Q 475 4063 692 4198  Q 909 4334 1138 4334  z M 1128 4159  Q 969 4159 845 3971  Q 722 3784 722 3184  Q 722 2750 791 2522  Q 844 2350 956 2256  Q 1022 2200 1119 2200  Q 1269 2200 1375 2363  Q 1531 2603 1531 3166  Q 1531 3759 1378 4000  Q 1278 4159 1128 4159  z M 4206 2103  Q 4428 2103 4648 1962  Q 4869 1822 4989 1553  Q 5109 1284 5109 963  Q 5109 409 4843 117  Q 4578 -175 4216 -175  Q 3988 -175 3773 -34  Q 3559 106 3436 367  Q 3313 628 3313 963  Q 3313 1291 3436 1562  Q 3559 1834 3773 1968  Q 3988 2103 4206 2103  z M 4209 1938  Q 4059 1938 3950 1769  Q 3809 1550 3809 941  Q 3809 381 3953 159  Q 4059 0 4209 0  Q 4353 0 4466 172  Q 4616 400 4616 956  Q 4616 1544 4466 1778  Q 4363 1938 4209 1938  z " transform="scale(0.015625)" />
       <path id="TimesNewRomanPSMT-15" d="M 2934 816  L 2638 0  L 138 0  L 138 116  Q 1241 1122 1691 1759  Q 2141 2397 2141 2925  Q 2141 3328 1894 3587  Q 1647 3847 1303 3847  Q 991 3847 742 3664  Q 494 3481 375 3128  L 259 3128  Q 338 3706 661 4015  Q 984 4325 1469 4325  Q 1984 4325 2329 3994  Q 2675 3663 2675 3213  Q 2675 2891 2525 2569  Q 2294 2063 1775 1497  Q 997 647 803 472  L 1909 472  Q 2247 472 2383 497  Q 2519 522 2628 598  Q 2738 675 2819 816  L 2934 816  z " transform="scale(0.015625)" />
       <path id="TimesNewRomanPSMT-17" d="M 2978 1563  L 2978 1119  L 2409 1119  L 2409 0  L 1894 0  L 1894 1119  L 100 1119  L 100 1519  L 2066 4325  L 2409 4325  L 2409 1563  L 2978 1563  z M 1894 1563  L 1894 3666  L 406 1563  L 1894 1563  z " transform="scale(0.015625)" />
       <path id="TimesNewRomanPSMT-18" d="M 2778 4238  L 2534 3706  L 1259 3706  L 981 3138  Q 1809 3016 2294 2522  Q 2709 2097 2709 1522  Q 2709 1188 2573 903  Q 2438 619 2231 419  Q 2025 219 1772 97  Q 1413 -75 1034 -75  Q 653 -75 479 54  Q 306 184 306 341  Q 306 428 378 495  Q 450 563 559 563  Q 641 563 702 538  Q 763 513 909 409  Q 1144 247 1384 247  Q 1750 247 2026 523  Q 2303 800 2303 1197  Q 2303 1581 2056 1914  Q 1809 2247 1375 2428  Q 1034 2569 447 2591  L 1259 4238  L 2778 4238  z " transform="scale(0.015625)" />
       <path id="TimesNewRomanPS-BoldMT-17" d="M 159 1597  L 2172 4325  L 2553 4325  L 2553 1597  L 2941 1597  L 2941 950  L 2553 950  L 2553 0  L 1694 0  L 1694 950  L 159 950  L 159 1597  z M 463 1597  L 1694 1597  L 1694 3269  L 463 1597  z " transform="scale(0.015625)" />
      <path id="TimesNewRomanPS-BoldMT-16" d="M 947 2125  L 947 2234  Q 1303 2338 1440 2427  Q 1578 2516 1678 2698  Q 1778 2881 1778 3069  Q 1778 3328 1589 3514  Q 1400 3700 1119 3700  Q 681 3700 375 3238  L 259 3278  Q 484 3800 836 4062  Q 1188 4325 1619 4325  Q 2059 4325 2345 4056  Q 2631 3788 2631 3428  Q 2631 3194 2498 2976  Q 2366 2759 2081 2594  Q 2447 2416 2639 2155  Q 2831 1894 2831 1500  Q 2831 838 2351 373  Q 1872 -91 1066 -91  Q 528 -91 281 88  Q 103 213 103 409  Q 103 553 206 654  Q 309 756 444 756  Q 547 756 638 713  Q 688 688 992 439  Q 1297 191 1563 191  Q 1794 191 1959 373  Q 2125 556 2125 838  Q 2125 1266 1825 1627  Q 1525 1988 947 2125  z " transform="scale(0.015625)" />
      <path id="TimesNewRomanPS-BoldMT-11" d="M 800 963  Q 1019 963 1170 809  Q 1322 656 1322 441  Q 1322 225 1169 73  Q 1016 -78 800 -78  Q 584 -78 432 73  Q 281 225 281 441  Q 281 656 432 809  Q 584 963 800 963  z " transform="scale(0.015625)" />
      <path id="TimesNewRomanPS-BoldMT-1b" d="M 2181 2394  Q 2628 2066 2801 1783  Q 2975 1500 2975 1134  Q 2975 622 2589 267  Q 2203 -88 1541 -88  Q 913 -88 569 221  Q 225 531 225 978  Q 225 1319 423 1575  Q 622 1831 1084 2044  Q 581 2428 439 2672  Q 297 2916 297 3238  Q 297 3663 658 3986  Q 1019 4309 1647 4309  Q 2253 4309 2579 4023  Q 2906 3738 2906 3338  Q 2906 3038 2729 2808  Q 2553 2578 2181 2394  z M 1944 2553  Q 2059 2709 2115 2903  Q 2172 3097 2172 3328  Q 2172 3734 1997 3950  Q 1866 4116 1634 4116  Q 1425 4116 1278 3964  Q 1131 3813 1131 3588  Q 1131 3359 1295 3114  Q 1459 2869 1944 2553  z M 1319 1894  Q 1222 1806 1181 1734  Q 1119 1625 1069 1415  Q 1019 1206 1019 978  Q 1019 684 1094 486  Q 1169 288 1308 200  Q 1447 113 1594 113  Q 1822 113 1978 280  Q 2134 447 2134 738  Q 2134 1344 1319 1894  z " transform="scale(0.015625)" />
      <path id="TimesNewRomanPS-BoldMT-8" d="M 4916 4334  L 1906 -178  L 1488 -178  L 4494 4334  L 4916 4334  z M 1494 4334  Q 1938 4334 2242 4020  Q 2547 3706 2547 3209  Q 2547 2700 2240 2383  Q 1934 2066 1481 2066  Q 1034 2066 739 2372  Q 444 2678 444 3178  Q 444 3694 747 4014  Q 1050 4334 1494 4334  z M 1494 4169  Q 1425 4169 1381 4128  Q 1303 4056 1264 3879  Q 1225 3703 1225 3150  Q 1225 2709 1278 2469  Q 1309 2331 1384 2263  Q 1431 2222 1494 2222  Q 1563 2222 1603 2259  Q 1675 2325 1709 2472  Q 1763 2709 1763 3138  Q 1763 3663 1713 3897  Q 1678 4059 1600 4134  Q 1563 4169 1494 4169  z M 4894 2097  Q 5347 2097 5651 1786  Q 5956 1475 5956 972  Q 5956 463 5647 144  Q 5338 -175 4900 -175  Q 4466 -175 4161 144  Q 3856 463 3856 963  Q 3856 1466 4153 1781  Q 4450 2097 4894 2097  z M 4903 1934  Q 4841 1934 4797 1897  Q 4722 1828 4681 1658  Q 4641 1488 4641 1006  Q 4641 494 4688 269  Q 4722 109 4803 38  Q 4844 0 4909 0  Q 4969 0 5006 34  Q 5084 106 5122 269  Q 5175 497 5175 959  Q 5175 1447 5125 1672  Q 5088 1834 5013 1900  Q 4975 1934 4903 1934  z " transform="scale(0.015625)" />
     <path id="TimesNewRomanPS-BoldMT-14" d="M 2084 4325  L 2084 859  Q 2084 469 2118 361  Q 2153 253 2262 184  Q 2372 116 2613 116  L 2709 116  L 2709 0  L 478 0  L 478 116  L 591 116  Q 863 116 978 178  Q 1094 241 1134 350  Q 1175 459 1175 859  L 1175 3056  Q 1175 3350 1147 3423  Q 1119 3497 1042 3548  Q 966 3600 866 3600  Q 706 3600 478 3500  L 422 3613  L 1981 4325  L 2084 4325  z " transform="scale(0.015625)" />
      <path id="TimesNewRomanPS-BoldMT-15" d="M 2650 0  L 156 0  L 156 69  Q 1303 1434 1548 1906  Q 1794 2378 1794 2828  Q 1794 3156 1591 3373  Q 1388 3591 1094 3591  Q 613 3591 347 3109  L 231 3150  Q 400 3750 744 4037  Q 1088 4325 1538 4325  Q 1859 4325 2125 4175  Q 2391 4025 2541 3764  Q 2691 3503 2691 3275  Q 2691 2859 2459 2431  Q 2144 1853 1081 819  L 1997 819  Q 2334 819 2436 847  Q 2538 875 2603 942  Q 2669 1009 2775 1225  L 2888 1225  L 2650 0  z " transform="scale(0.015625)" />
     <path id="TimesNewRomanPS-BoldMT-2f" d="M 4041 1488  L 3881 0  L 119 0  L 119 116  L 259 116  Q 444 116 556 181  Q 638 225 681 331  Q 716 406 716 725  L 716 3513  Q 716 3838 681 3919  Q 647 4000 542 4061  Q 438 4122 259 4122  L 119 4122  L 119 4238  L 2378 4238  L 2378 4122  L 2194 4122  Q 2009 4122 1897 4056  Q 1816 4013 1769 3906  Q 1734 3831 1734 3513  L 1734 813  Q 1734 488 1771 398  Q 1809 309 1919 266  Q 1997 238 2297 238  L 2650 238  Q 2988 238 3213 356  Q 3438 475 3602 731  Q 3766 988 3913 1488  L 4041 1488  z " transform="scale(0.015625)" />
     <path id="TimesNewRomanPS-BoldMT-2c" d="M 2344 116  L 2344 0  L 128 0  L 128 116  L 269 116  Q 453 116 566 181  Q 647 225 691 331  Q 725 406 725 725  L 725 3513  Q 725 3838 690 3919  Q 656 4000 551 4061  Q 447 4122 269 4122  L 128 4122  L 128 4238  L 2344 4238  L 2344 4122  L 2203 4122  Q 2019 4122 1906 4056  Q 1825 4013 1778 3906  Q 1744 3831 1744 3513  L 1744 725  Q 1744 400 1780 319  Q 1816 238 1920 177  Q 2025 116 2203 116  L 2344 116  z " transform="scale(0.015625)" />
     <path id="TimesNewRomanPS-BoldMT-25" d="M 2847 2247  Q 3450 2106 3694 1906  Q 4044 1622 4044 1169  Q 4044 691 3659 378  Q 3188 0 2288 0  L 134 0  L 134 116  Q 428 116 533 170  Q 638 225 680 312  Q 722 400 722 744  L 722 3494  Q 722 3838 680 3927  Q 638 4016 531 4069  Q 425 4122 134 4122  L 134 4238  L 2166 4238  Q 2894 4238 3197 4108  Q 3500 3978 3675 3720  Q 3850 3463 3850 3172  Q 3850 2866 3628 2627  Q 3406 2388 2847 2247  z M 1709 2331  Q 2153 2331 2364 2431  Q 2575 2531 2687 2712  Q 2800 2894 2800 3175  Q 2800 3456 2689 3636  Q 2578 3816 2372 3909  Q 2166 4003 1709 4000  L 1709 2331  z M 1709 2088  L 1709 728  L 1706 572  Q 1706 403 1792 317  Q 1878 231 2047 231  Q 2297 231 2508 342  Q 2719 453 2831 664  Q 2944 875 2944 1134  Q 2944 1431 2806 1667  Q 2669 1903 2428 1997  Q 2188 2091 1709 2088  z " transform="scale(0.015625)" />
     <path id="TimesNewRomanPS-BoldMT-28" d="M 1744 3994  L 1744 2269  L 1828 2269  Q 2231 2269 2412 2522  Q 2594 2775 2644 3269  L 2763 3269  L 2763 1050  L 2644 1050  Q 2606 1413 2486 1644  Q 2366 1875 2206 1954  Q 2047 2034 1744 2034  L 1744 841  Q 1744 491 1773 412  Q 1803 334 1884 284  Q 1966 234 2147 234  L 2400 234  Q 2994 234 3351 509  Q 3709 784 3866 1347  L 3981 1347  L 3791 0  L 128 0  L 128 116  L 269 116  Q 453 116 566 181  Q 647 225 691 331  Q 725 406 725 725  L 725 3513  Q 725 3800 709 3866  Q 678 3975 594 4034  Q 475 4122 269 4122  L 128 4122  L 128 4238  L 3675 4238  L 3675 2984  L 3556 2984  Q 3466 3444 3302 3644  Q 3138 3844 2838 3938  Q 2663 3994 2181 3994  L 1744 3994  z " transform="scale(0.015625)" />
     <path id="TimesNewRomanPS-BoldMT-35" d="M 1700 1931  L 1700 744  Q 1700 400 1742 311  Q 1784 222 1890 169  Q 1997 116 2288 116  L 2288 0  L 119 0  L 119 116  Q 413 116 517 170  Q 622 225 664 312  Q 706 400 706 744  L 706 3494  Q 706 3838 664 3927  Q 622 4016 515 4069  Q 409 4122 119 4122  L 119 4238  L 2088 4238  Q 2856 4238 3212 4131  Q 3569 4025 3794 3739  Q 4019 3453 4019 3069  Q 4019 2600 3681 2294  Q 3466 2100 3078 2003  L 4097 569  Q 4297 291 4381 222  Q 4509 125 4678 116  L 4678 0  L 3344 0  L 1978 1931  L 1700 1931  z M 1700 4009  L 1700 2153  L 1878 2153  Q 2313 2153 2528 2233  Q 2744 2313 2867 2520  Q 2991 2728 2991 3063  Q 2991 3547 2764 3778  Q 2538 4009 2034 4009  L 1700 4009  z " transform="scale(0.015625)" />
     <path id="TimesNewRomanPS-BoldMT-32" d="M 2472 4297  Q 3484 4334 4117 3706  Q 4750 3078 4750 2134  Q 4750 1328 4278 716  Q 3653 -97 2513 -97  Q 1369 -97 744 678  Q 250 1291 250 2131  Q 250 3075 892 3704  Q 1534 4334 2472 4297  z M 2509 4097  Q 1928 4097 1625 3503  Q 1378 3016 1378 2103  Q 1378 1019 1759 500  Q 2025 138 2503 138  Q 2825 138 3041 294  Q 3316 494 3469 933  Q 3622 1372 3622 2078  Q 3622 2919 3465 3336  Q 3309 3753 3067 3925  Q 2825 4097 2509 4097  z " transform="scale(0.015625)" />
     <path id="TimesNewRomanPS-BoldMT-10" d="M 1978 1147  L 156 1147  L 156 1794  L 1978 1794  L 1978 1147  z " transform="scale(0.015625)" />
     <path id="TimesNewRomanPS-BoldMT-33" d="M 1728 1919  L 1728 744  Q 1728 400 1770 311  Q 1813 222 1920 169  Q 2028 116 2316 116  L 2316 0  L 163 0  L 163 116  Q 456 116 561 170  Q 666 225 708 312  Q 750 400 750 744  L 750 3494  Q 750 3838 708 3927  Q 666 4016 559 4069  Q 453 4122 163 4122  L 163 4238  L 2009 4238  Q 2922 4238 3319 3913  Q 3716 3588 3716 3100  Q 3716 2688 3459 2394  Q 3203 2100 2753 1994  Q 2450 1919 1728 1919  z M 1728 3994  L 1728 2163  Q 1831 2156 1884 2156  Q 2266 2156 2472 2382  Q 2678 2609 2678 3084  Q 2678 3556 2472 3775  Q 2266 3994 1856 3994  L 1728 3994  z " transform="scale(0.015625)" />
     <path id="TimesNewRomanPS-BoldMT-3" transform="scale(0.015625)" />
     <path id="TimesNewRomanPS-BoldMT-c2" d="M 803 2641  Q 1019 2641 1172 2487  Q 1325 2334 1325 2116  Q 1325 1900 1172 1747  Q 1019 1594 803 1594  Q 584 1594 431 1747  Q 278 1900 278 2116  Q 278 2334 431 2487  Q 584 2641 803 2641  z " transform="scale(0.015625)" />
     <path id="TimesNewRomanPS-BoldMT-56" d="M 2063 3003  L 2109 2006  L 2003 2006  Q 1813 2450 1608 2612  Q 1403 2775 1200 2775  Q 1072 2775 981 2689  Q 891 2603 891 2491  Q 891 2406 953 2328  Q 1053 2200 1512 1889  Q 1972 1578 2117 1361  Q 2263 1144 2263 875  Q 2263 631 2141 397  Q 2019 163 1797 37  Q 1575 -88 1306 -88  Q 1097 -88 747 44  Q 653 78 619 78  Q 516 78 447 -78  L 344 -78  L 294 972  L 400 972  Q 541 559 786 353  Q 1031 147 1250 147  Q 1400 147 1495 239  Q 1591 331 1591 463  Q 1591 613 1497 722  Q 1403 831 1078 1053  Q 600 1384 459 1559  Q 253 1816 253 2125  Q 253 2463 486 2736  Q 719 3009 1159 3009  Q 1397 3009 1619 2894  Q 1703 2847 1756 2847  Q 1813 2847 1847 2870  Q 1881 2894 1956 3003  L 2063 3003  z " transform="scale(0.015625)" />
     <path id="TimesNewRomanPS-BoldMT-4c" d="M 919 4338  Q 1122 4338 1262 4195  Q 1403 4053 1403 3853  Q 1403 3653 1261 3512  Q 1119 3372 919 3372  Q 719 3372 578 3512  Q 438 3653 438 3853  Q 438 4053 578 4195  Q 719 4338 919 4338  z M 1356 2922  L 1356 606  Q 1356 297 1428 211  Q 1500 125 1709 113  L 1709 0  L 131 0  L 131 113  Q 325 119 419 225  Q 481 297 481 606  L 481 2313  Q 481 2622 409 2708  Q 338 2794 131 2806  L 131 2922  L 1356 2922  z " transform="scale(0.015625)" />
     <path id="TimesNewRomanPS-BoldMT-5b" d="M 1944 1791  L 2450 828  Q 2713 325 2866 191  Q 2950 119 3097 113  L 3097 0  L 1469 0  L 1469 113  Q 1659 128 1704 162  Q 1750 197 1750 256  Q 1750 344 1650 531  L 1397 1006  L 1181 691  Q 1034 475 1016 434  Q 991 375 991 328  Q 991 256 1020 207  Q 1050 159 1101 136  Q 1153 113 1291 113  L 1291 0  L 147 0  L 147 113  Q 359 113 536 230  Q 713 347 1050 844  L 1291 1200  L 788 2131  Q 541 2588 419 2691  Q 297 2794 147 2806  L 147 2922  L 1766 2922  L 1766 2806  L 1681 2803  L 1519 2747  Q 1494 2725 1494 2675  Q 1494 2628 1509 2578  Q 1519 2556 1597 2409  L 1825 1984  L 1944 2153  Q 2194 2497 2194 2634  Q 2194 2700 2139 2745  Q 2084 2791 1944 2806  L 1944 2922  L 2978 2922  L 2978 2806  Q 2788 2800 2622 2689  Q 2456 2578 2250 2259  L 1944 1791  z " transform="scale(0.015625)" />
     <path id="TimesNewRomanPS-BoldMT-51" d="M 1409 2922  L 1409 2544  Q 1634 2788 1840 2898  Q 2047 3009 2284 3009  Q 2569 3009 2756 2851  Q 2944 2694 3006 2459  Q 3056 2281 3056 1775  L 3056 638  Q 3056 300 3117 217  Q 3178 134 3372 113  L 3372 0  L 1894 0  L 1894 113  Q 2059 134 2131 250  Q 2181 328 2181 638  L 2181 1938  Q 2181 2297 2153 2390  Q 2125 2484 2058 2536  Q 1991 2588 1909 2588  Q 1641 2588 1409 2203  L 1409 638  Q 1409 309 1470 221  Q 1531 134 1697 113  L 1697 0  L 219 0  L 219 113  Q 403 131 481 231  Q 534 300 534 638  L 534 2288  Q 534 2619 473 2700  Q 413 2781 219 2806  L 219 2922  L 1409 2922  z " transform="scale(0.015625)" />
     <path id="TimesNewRomanPS-BoldMT-52" d="M 1594 3009  Q 1975 3009 2303 2812  Q 2631 2616 2801 2253  Q 2972 1891 2972 1459  Q 2972 838 2656 419  Q 2275 -88 1603 -88  Q 944 -88 587 375  Q 231 838 231 1447  Q 231 2075 595 2542  Q 959 3009 1594 3009  z M 1606 2788  Q 1447 2788 1333 2667  Q 1219 2547 1183 2192  Q 1147 1838 1147 1206  Q 1147 872 1191 581  Q 1225 359 1337 243  Q 1450 128 1594 128  Q 1734 128 1828 206  Q 1950 313 1991 503  Q 2053 800 2053 1703  Q 2053 2234 1993 2432  Q 1934 2631 1819 2722  Q 1738 2788 1606 2788  z " transform="scale(0.015625)" />
     <path id="TimesNewRomanPS-BoldMT-4a" d="M 2091 2888  L 3075 2888  L 3075 2544  L 2516 2544  Q 2669 2391 2728 2266  Q 2803 2097 2803 1913  Q 2803 1600 2629 1370  Q 2456 1141 2157 1011  Q 1859 881 1628 881  Q 1609 881 1253 897  Q 1113 897 1017 805  Q 922 713 922 584  Q 922 472 1008 400  Q 1094 328 1288 328  L 1828 334  Q 2484 334 2731 191  Q 3084 -9 3084 -425  Q 3084 -691 2921 -908  Q 2759 -1125 2494 -1228  Q 2091 -1381 1566 -1381  Q 1172 -1381 847 -1304  Q 522 -1228 381 -1092  Q 241 -956 241 -806  Q 241 -663 348 -548  Q 456 -434 750 -356  Q 344 -156 344 200  Q 344 416 509 619  Q 675 822 1034 972  Q 616 1125 428 1375  Q 241 1625 241 1953  Q 241 2381 591 2695  Q 941 3009 1491 3009  Q 1781 3009 2091 2888  z M 1550 2816  Q 1369 2816 1244 2633  Q 1119 2450 1119 1875  Q 1119 1409 1242 1236  Q 1366 1063 1534 1063  Q 1722 1063 1847 1234  Q 1972 1406 1972 1903  Q 1972 2463 1831 2666  Q 1731 2816 1550 2816  z M 1366 -431  Q 1047 -431 944 -484  Q 766 -581 766 -747  Q 766 -906 950 -1036  Q 1134 -1166 1644 -1166  Q 2078 -1166 2326 -1050  Q 2575 -934 2575 -725  Q 2575 -647 2528 -594  Q 2444 -500 2273 -465  Q 2103 -431 1366 -431  z " transform="scale(0.015625)" />
     <path id="TimesNewRomanPS-BoldMT-57" d="M 1375 3991  L 1375 2922  L 2069 2922  L 2069 2613  L 1375 2613  L 1375 809  Q 1375 556 1398 482  Q 1422 409 1481 364  Q 1541 319 1591 319  Q 1794 319 1975 628  L 2069 559  Q 1816 -41 1247 -41  Q 969 -41 776 114  Q 584 269 531 459  Q 500 566 500 1034  L 500 2613  L 119 2613  L 119 2722  Q 513 3000 789 3306  Q 1066 3613 1272 3991  L 1375 3991  z " transform="scale(0.015625)" />
     <path id="TimesNewRomanPS-BoldMT-48" d="M 2691 1566  L 1088 1566  Q 1116 984 1397 647  Q 1613 388 1916 388  Q 2103 388 2256 492  Q 2409 597 2584 869  L 2691 800  Q 2453 316 2165 114  Q 1878 -88 1500 -88  Q 850 -88 516 413  Q 247 816 247 1413  Q 247 2144 642 2576  Q 1038 3009 1569 3009  Q 2013 3009 2339 2645  Q 2666 2281 2691 1566  z M 1922 1775  Q 1922 2278 1867 2465  Q 1813 2653 1697 2750  Q 1631 2806 1522 2806  Q 1359 2806 1256 2647  Q 1072 2369 1072 1884  L 1072 1775  L 1922 1775  z " transform="scale(0.015625)" />
     <path id="TimesNewRomanPS-BoldMT-50" d="M 1428 2922  L 1428 2538  Q 1669 2800 1873 2904  Q 2078 3009 2322 3009  Q 2603 3009 2793 2878  Q 2984 2747 3088 2478  Q 3338 2759 3567 2884  Q 3797 3009 4047 3009  Q 4350 3009 4529 2870  Q 4709 2731 4779 2517  Q 4850 2303 4850 1834  L 4850 638  Q 4850 300 4911 219  Q 4972 138 5166 113  L 5166 0  L 3656 0  L 3656 113  Q 3834 128 3919 250  Q 3975 334 3975 638  L 3975 1894  Q 3975 2284 3944 2390  Q 3913 2497 3845 2548  Q 3778 2600 3688 2600  Q 3553 2600 3415 2501  Q 3278 2403 3138 2206  L 3138 638  Q 3138 322 3191 241  Q 3263 125 3466 113  L 3466 0  L 1953 0  L 1953 113  Q 2075 119 2145 173  Q 2216 228 2239 304  Q 2263 381 2263 638  L 2263 1894  Q 2263 2291 2231 2391  Q 2200 2491 2126 2547  Q 2053 2603 1969 2603  Q 1844 2603 1741 2538  Q 1594 2441 1428 2206  L 1428 638  Q 1428 328 1489 229  Q 1550 131 1744 113  L 1744 0  L 238 0  L 238 113  Q 422 131 500 231  Q 553 300 553 638  L 553 2288  Q 553 2619 492 2700  Q 431 2781 238 2806  L 238 2922  L 1428 2922  z " transform="scale(0.015625)" />
    <path id="TimesNewRomanPSMT-57" d="M 1031 3803  L 1031 2863  L 1700 2863  L 1700 2644  L 1031 2644  L 1031 788  Q 1031 509 1111 412  Q 1191 316 1316 316  Q 1419 316 1516 380  Q 1613 444 1666 569  L 1788 569  Q 1678 263 1478 108  Q 1278 -47 1066 -47  Q 922 -47 784 33  Q 647 113 581 261  Q 516 409 516 719  L 516 2644  L 63 2644  L 63 2747  Q 234 2816 414 2980  Q 594 3144 734 3369  Q 806 3488 934 3803  L 1031 3803  z " transform="scale(0.015625)" />
     <path id="TimesNewRomanPSMT-4c" d="M 928 4444  Q 1059 4444 1151 4351  Q 1244 4259 1244 4128  Q 1244 3997 1151 3903  Q 1059 3809 928 3809  Q 797 3809 703 3903  Q 609 3997 609 4128  Q 609 4259 701 4351  Q 794 4444 928 4444  z M 1188 2947  L 1188 647  Q 1188 378 1227 289  Q 1266 200 1342 156  Q 1419 113 1622 113  L 1622 0  L 231 0  L 231 113  Q 441 113 512 153  Q 584 194 626 287  Q 669 381 669 647  L 669 1750  Q 669 2216 641 2353  Q 619 2453 572 2492  Q 525 2531 444 2531  Q 356 2531 231 2484  L 188 2597  L 1050 2947  L 1188 2947  z " transform="scale(0.015625)" />
     <path id="TimesNewRomanPSMT-4f" d="M 1184 4444  L 1184 647  Q 1184 378 1223 290  Q 1263 203 1344 158  Q 1425 113 1647 113  L 1647 0  L 244 0  L 244 113  Q 441 113 512 153  Q 584 194 625 287  Q 666 381 666 647  L 666 3247  Q 666 3731 644 3842  Q 622 3953 573 3993  Q 525 4034 450 4034  Q 369 4034 244 3984  L 191 4094  L 1044 4444  L 1184 4444  z " transform="scale(0.015625)" />
     <path id="TimesNewRomanPSMT-12" d="M 1794 4444  L 259 -88  L 9 -88  L 1544 4444  L 1794 4444  z " transform="scale(0.015625)" />
     <path id="TimesNewRomanPSMT-32" d="M 2341 4334  Q 3166 4334 3770 3707  Q 4375 3081 4375 2144  Q 4375 1178 3765 540  Q 3156 -97 2291 -97  Q 1416 -97 820 525  Q 225 1147 225 2134  Q 225 3144 913 3781  Q 1509 4334 2341 4334  z M 2281 4106  Q 1713 4106 1369 3684  Q 941 3159 941 2147  Q 941 1109 1384 550  Q 1725 125 2284 125  Q 2881 125 3270 590  Q 3659 1056 3659 2059  Q 3659 3147 3231 3681  Q 2888 4106 2281 4106  z " transform="scale(0.015625)" />
     <path id="TimesNewRomanPSMT-45" d="M 984 2369  Q 1400 2947 1881 2947  Q 2322 2947 2650 2570  Q 2978 2194 2978 1541  Q 2978 778 2472 313  Q 2038 -88 1503 -88  Q 1253 -88 995 3  Q 738 94 469 275  L 469 3241  Q 469 3728 445 3840  Q 422 3953 372 3993  Q 322 4034 247 4034  Q 159 4034 28 3984  L -16 4094  L 844 4444  L 984 4444  L 984 2369  z M 984 2169  L 984 456  Q 1144 300 1314 220  Q 1484 141 1663 141  Q 1947 141 2192 453  Q 2438 766 2438 1363  Q 2438 1913 2192 2208  Q 1947 2503 1634 2503  Q 1469 2503 1303 2419  Q 1178 2356 984 2169  z " transform="scale(0.015625)" />
     <path id="TimesNewRomanPSMT-4d" d="M 925 4447  Q 1059 4447 1153 4353  Q 1247 4259 1247 4125  Q 1247 3994 1153 3900  Q 1059 3806 925 3806  Q 794 3806 700 3900  Q 606 3994 606 4125  Q 606 4259 700 4353  Q 794 4447 925 4447  z M 1194 2947  L 1194 66  Q 1194 -669 881 -1025  Q 569 -1381 69 -1381  Q -216 -1381 -353 -1278  Q -491 -1175 -491 -1066  Q -491 -956 -414 -878  Q -338 -800 -234 -800  Q -153 -800 -69 -841  Q -16 -863 136 -998  Q 288 -1134 391 -1134  Q 466 -1134 537 -1076  Q 609 -1019 643 -883  Q 678 -747 678 -294  L 678 1744  Q 678 2216 650 2350  Q 628 2453 581 2492  Q 534 2531 453 2531  Q 366 2531 241 2484  L 197 2597  L 1059 2947  L 1194 2947  z " transform="scale(0.015625)" />
     <path id="TimesNewRomanPSMT-48" d="M 681 1784  Q 678 1147 991 784  Q 1303 422 1725 422  Q 2006 422 2214 576  Q 2422 731 2563 1106  L 2659 1044  Q 2594 616 2278 264  Q 1963 -88 1488 -88  Q 972 -88 605 314  Q 238 716 238 1394  Q 238 2128 614 2539  Q 991 2950 1559 2950  Q 2041 2950 2350 2633  Q 2659 2316 2659 1784  L 681 1784  z M 681 1966  L 2006 1966  Q 1991 2241 1941 2353  Q 1863 2528 1708 2628  Q 1553 2728 1384 2728  Q 1125 2728 920 2526  Q 716 2325 681 1966  z " transform="scale(0.015625)" />
     <path id="TimesNewRomanPSMT-46" d="M 2631 1088  Q 2516 522 2178 217  Q 1841 -88 1431 -88  Q 944 -88 581 321  Q 219 731 219 1428  Q 219 2103 620 2525  Q 1022 2947 1584 2947  Q 2006 2947 2278 2723  Q 2550 2500 2550 2259  Q 2550 2141 2473 2067  Q 2397 1994 2259 1994  Q 2075 1994 1981 2113  Q 1928 2178 1911 2362  Q 1894 2547 1784 2644  Q 1675 2738 1481 2738  Q 1169 2738 978 2506  Q 725 2200 725 1697  Q 725 1184 976 792  Q 1228 400 1656 400  Q 1963 400 2206 609  Q 2378 753 2541 1131  L 2631 1088  z " transform="scale(0.015625)" />
     <path id="TimesNewRomanPSMT-2a" d="M 3928 4334  L 4038 2997  L 3928 2997  Q 3763 3497 3500 3750  Q 3122 4116 2528 4116  Q 1719 4116 1297 3475  Q 944 2934 944 2188  Q 944 1581 1178 1081  Q 1413 581 1792 348  Q 2172 116 2572 116  Q 2806 116 3025 175  Q 3244 234 3447 350  L 3447 1575  Q 3447 1894 3398 1992  Q 3350 2091 3248 2142  Q 3147 2194 2891 2194  L 2891 2313  L 4531 2313  L 4531 2194  L 4453 2194  Q 4209 2194 4119 2031  Q 4056 1916 4056 1575  L 4056 278  Q 3697 84 3347 -6  Q 2997 -97 2569 -97  Q 1341 -97 703 691  Q 225 1281 225 2053  Q 225 2613 494 3125  Q 813 3734 1369 4063  Q 1834 4334 2469 4334  Q 2700 4334 2889 4296  Q 3078 4259 3425 4131  Q 3600 4066 3659 4066  Q 3719 4066 3761 4120  Q 3803 4175 3813 4334  L 3928 4334  z " transform="scale(0.015625)" />
     <path id="TimesNewRomanPSMT-52" d="M 1600 2947  Q 2250 2947 2644 2453  Q 2978 2031 2978 1484  Q 2978 1100 2793 706  Q 2609 313 2286 112  Q 1963 -88 1566 -88  Q 919 -88 538 428  Q 216 863 216 1403  Q 216 1797 411 2186  Q 606 2575 925 2761  Q 1244 2947 1600 2947  z M 1503 2744  Q 1338 2744 1170 2645  Q 1003 2547 900 2300  Q 797 2053 797 1666  Q 797 1041 1045 587  Q 1294 134 1700 134  Q 2003 134 2200 384  Q 2397 634 2397 1244  Q 2397 2006 2069 2444  Q 1847 2744 1503 2744  z " transform="scale(0.015625)" />
     <path id="TimesNewRomanPSMT-3" transform="scale(0.015625)" />
     <path id="TimesNewRomanPSMT-51" d="M 1034 2341  Q 1538 2947 1994 2947  Q 2228 2947 2397 2830  Q 2566 2713 2666 2444  Q 2734 2256 2734 1869  L 2734 647  Q 2734 375 2778 278  Q 2813 200 2889 156  Q 2966 113 3172 113  L 3172 0  L 1756 0  L 1756 113  L 1816 113  Q 2016 113 2095 173  Q 2175 234 2206 353  Q 2219 400 2219 647  L 2219 1819  Q 2219 2209 2117 2386  Q 2016 2563 1775 2563  Q 1403 2563 1034 2156  L 1034 647  Q 1034 356 1069 288  Q 1113 197 1189 155  Q 1266 113 1500 113  L 1500 0  L 84 0  L 84 113  L 147 113  Q 366 113 442 223  Q 519 334 519 647  L 519 1709  Q 519 2225 495 2337  Q 472 2450 423 2490  Q 375 2531 294 2531  Q 206 2531 84 2484  L 38 2597  L 900 2947  L 1034 2947  L 1034 2341  z " transform="scale(0.015625)" />
     <path id="TimesNewRomanPSMT-5c" d="M 38 2863  L 1372 2863  L 1372 2747  L 1306 2747  Q 1166 2747 1095 2686  Q 1025 2625 1025 2534  Q 1025 2413 1128 2197  L 1825 753  L 2466 2334  Q 2519 2463 2519 2588  Q 2519 2644 2497 2672  Q 2472 2706 2419 2726  Q 2366 2747 2231 2747  L 2231 2863  L 3163 2863  L 3163 2747  Q 3047 2734 2984 2696  Q 2922 2659 2847 2556  Q 2819 2513 2741 2316  L 1575 -541  Q 1406 -956 1132 -1168  Q 859 -1381 606 -1381  Q 422 -1381 303 -1275  Q 184 -1169 184 -1031  Q 184 -900 270 -820  Q 356 -741 506 -741  Q 609 -741 788 -809  Q 913 -856 944 -856  Q 1038 -856 1148 -759  Q 1259 -663 1372 -384  L 1575 113  L 547 2272  Q 500 2369 397 2513  Q 319 2622 269 2659  Q 197 2709 38 2747  L 38 2863  z " transform="scale(0.015625)" />
     <path id="TimesNewRomanPSMT-c2" d="M 800 2466  Q 947 2466 1047 2364  Q 1147 2263 1147 2119  Q 1147 1975 1045 1873  Q 944 1772 800 1772  Q 656 1772 554 1873  Q 453 1975 453 2119  Q 453 2263 554 2364  Q 656 2466 800 2466  z " transform="scale(0.015625)" />
     <path id="TimesNewRomanPSMT-5b" d="M 84 2863  L 1431 2863  L 1431 2747  Q 1303 2747 1251 2703  Q 1200 2659 1200 2588  Q 1200 2513 1309 2356  Q 1344 2306 1413 2200  L 1616 1875  L 1850 2200  Q 2075 2509 2075 2591  Q 2075 2656 2022 2701  Q 1969 2747 1850 2747  L 1850 2863  L 2819 2863  L 2819 2747  Q 2666 2738 2553 2663  Q 2400 2556 2134 2200  L 1744 1678  L 2456 653  Q 2719 275 2831 198  Q 2944 122 3122 113  L 3122 0  L 1772 0  L 1772 113  Q 1913 113 1991 175  Q 2050 219 2050 291  Q 2050 363 1850 653  L 1431 1266  L 972 653  Q 759 369 759 316  Q 759 241 829 180  Q 900 119 1041 113  L 1041 0  L 106 0  L 106 113  Q 219 128 303 191  Q 422 281 703 653  L 1303 1450  L 759 2238  Q 528 2575 401 2661  Q 275 2747 84 2747  L 84 2863  z " transform="scale(0.015625)" />
     <path id="TimesNewRomanPSMT-55" d="M 1038 2947  L 1038 2303  Q 1397 2947 1775 2947  Q 1947 2947 2059 2842  Q 2172 2738 2172 2600  Q 2172 2478 2090 2393  Q 2009 2309 1897 2309  Q 1788 2309 1652 2417  Q 1516 2525 1450 2525  Q 1394 2525 1328 2463  Q 1188 2334 1038 2041  L 1038 669  Q 1038 431 1097 309  Q 1138 225 1241 169  Q 1344 113 1538 113  L 1538 0  L 72 0  L 72 113  Q 291 113 397 181  Q 475 231 506 341  Q 522 394 522 644  L 522 1753  Q 522 2253 501 2348  Q 481 2444 426 2487  Q 372 2531 291 2531  Q 194 2531 72 2484  L 41 2597  L 906 2947  L 1038 2947  z " transform="scale(0.015625)" />
     <path id="TimesNewRomanPSMT-56" d="M 2050 2947  L 2050 1972  L 1947 1972  Q 1828 2431 1642 2597  Q 1456 2763 1169 2763  Q 950 2763 815 2647  Q 681 2531 681 2391  Q 681 2216 781 2091  Q 878 1963 1175 1819  L 1631 1597  Q 2266 1288 2266 781  Q 2266 391 1970 151  Q 1675 -88 1309 -88  Q 1047 -88 709 6  Q 606 38 541 38  Q 469 38 428 -44  L 325 -44  L 325 978  L 428 978  Q 516 541 762 319  Q 1009 97 1316 97  Q 1531 97 1667 223  Q 1803 350 1803 528  Q 1803 744 1651 891  Q 1500 1038 1047 1263  Q 594 1488 453 1669  Q 313 1847 313 2119  Q 313 2472 555 2709  Q 797 2947 1181 2947  Q 1350 2947 1591 2875  Q 1750 2828 1803 2828  Q 1853 2828 1881 2850  Q 1909 2872 1947 2947  L 2050 2947  z " transform="scale(0.015625)" />
    <path id="TimesNewRomanPSMT-16" d="M 325 3431  Q 506 3859 782 4092  Q 1059 4325 1472 4325  Q 1981 4325 2253 3994  Q 2459 3747 2459 3466  Q 2459 3003 1878 2509  Q 2269 2356 2469 2072  Q 2669 1788 2669 1403  Q 2669 853 2319 450  Q 1863 -75 997 -75  Q 569 -75 414 31  Q 259 138 259 259  Q 259 350 332 419  Q 406 488 509 488  Q 588 488 669 463  Q 722 447 909 348  Q 1097 250 1169 231  Q 1284 197 1416 197  Q 1734 197 1970 444  Q 2206 691 2206 1028  Q 2206 1275 2097 1509  Q 2016 1684 1919 1775  Q 1784 1900 1550 2001  Q 1316 2103 1072 2103  L 972 2103  L 972 2197  Q 1219 2228 1467 2375  Q 1716 2522 1828 2728  Q 1941 2934 1941 3181  Q 1941 3503 1739 3701  Q 1538 3900 1238 3900  Q 753 3900 428 3381  L 325 3431  z " transform="scale(0.015625)" />
    <clipPath id="pa220a6564b">
   <rect x="52.92" y="104.976" width="441" height="182.736" />
  </clipPath>
 </defs>
 <g id="figure_1">
  <g id="patch_1">
   <path d="M 0 388.8  L 504 388.8  L 504 0  L 0 0  z " style="fill: #141820" />
  </g>
  <g id="leaderboard-axis-libero-pro-six-non-long-0-50" data-axis-left="52.92" data-axis-width="441" data-axis-max="50">
   <g id="patch_2">
    <path d="M 52.92 287.712  L 493.92 287.712  L 493.92 104.976  L 52.92 104.976  z " style="fill: #141820" />
   </g>
   <g id="matplotlib.axis_1">
    <g id="xtick_1">
     <g id="line2d_1" />
     </g>
    <g id="xtick_2">
     <g id="line2d_2" />
     </g>
   </g>
   <g id="matplotlib.axis_2">
    <g id="ytick_1">
     <g id="line2d_3">
      <path d="M 52.92 287.712  L 493.92 287.712  " clip-path="url(#pa220a6564b)" style="fill: none; stroke: #353c4a; stroke-width: 0.8; stroke-linecap: square" />
     </g>
     <g id="line2d_4" />
     <g id="leaderboard-tick-libero-pro-six-non-long-0">
      <!-- 0% -->
      <g style="fill: #b9c1d1" transform="translate(22.926562 293.952234) scale(0.18 -0.18)">
       <use xlink:href="#TimesNewRomanPSMT-13" />
       <use xlink:href="#TimesNewRomanPSMT-8" transform="translate(50 0)" />
      </g>
     </g>
    </g>
    <g id="ytick_2">
     <g id="line2d_5">
      <path d="M 52.92 214.6176  L 493.92 214.6176  " clip-path="url(#pa220a6564b)" style="fill: none; stroke: #353c4a; stroke-width: 0.8; stroke-linecap: square" />
     </g>
     <g id="line2d_6" />
     <g id="leaderboard-tick-libero-pro-six-non-long-20">
      <!-- 20% -->
      <g style="fill: #b9c1d1" transform="translate(13.926562 220.857834) scale(0.18 -0.18)">
       <use xlink:href="#TimesNewRomanPSMT-15" />
       <use xlink:href="#TimesNewRomanPSMT-13" transform="translate(50 0)" />
       <use xlink:href="#TimesNewRomanPSMT-8" transform="translate(100 0)" />
      </g>
     </g>
    </g>
    <g id="ytick_3">
     <g id="line2d_7">
      <path d="M 52.92 141.5232  L 493.92 141.5232  " clip-path="url(#pa220a6564b)" style="fill: none; stroke: #353c4a; stroke-width: 0.8; stroke-linecap: square" />
     </g>
     <g id="line2d_8" />
     <g id="leaderboard-tick-libero-pro-six-non-long-40">
      <!-- 40% -->
      <g style="fill: #b9c1d1" transform="translate(13.926562 147.763434) scale(0.18 -0.18)">
       <use xlink:href="#TimesNewRomanPSMT-17" />
       <use xlink:href="#TimesNewRomanPSMT-13" transform="translate(50 0)" />
       <use xlink:href="#TimesNewRomanPSMT-8" transform="translate(100 0)" />
      </g>
     </g>
    </g>
    <g id="ytick_4">
     <g id="line2d_9">
      <path d="M 52.92 104.976  L 493.92 104.976  " clip-path="url(#pa220a6564b)" style="fill: none; stroke: #353c4a; stroke-width: 0.8; stroke-linecap: square" />
     </g>
     <g id="line2d_10" />
     <g id="leaderboard-tick-libero-pro-six-non-long-50">
      <!-- 50% -->
      <g style="fill: #b9c1d1" transform="translate(13.926562 111.216234) scale(0.18 -0.18)">
       <use xlink:href="#TimesNewRomanPSMT-18" />
       <use xlink:href="#TimesNewRomanPSMT-13" transform="translate(50 0)" />
       <use xlink:href="#TimesNewRomanPSMT-8" transform="translate(100 0)" />
      </g>
     </g>
    </g>
   </g>
   <g id="patch_3">
    <path d="M 52.92 287.712  L 493.92 287.712  " style="fill: none; stroke: #353c4a; stroke-width: 0.8; stroke-linejoin: miter; stroke-linecap: square" />
   </g>
   <g class="rpent-bar-record" data-record-id="libero-pro-six-non-long--rats" data-center-x="174.982500"><g id="leaderboard-bar-libero-pro-six-non-long-0">
    <path d="M 158.992042 287.712  L 190.972958 287.712  L 190.972958 127.635264  L 158.992042 127.635264  z " clip-path="url(#pa220a6564b)" style="fill: #aeb7c6" />
   </g>
   <g id="leaderboard-value-libero-pro-six-non-long-0">
    <!-- 43.8% -->
    <g style="fill: #eef0f7" transform="translate(143.3575 114.671397) scale(0.23 -0.23)">
     <use xlink:href="#TimesNewRomanPS-BoldMT-17" />
     <use xlink:href="#TimesNewRomanPS-BoldMT-16" transform="translate(50 0)" />
     <use xlink:href="#TimesNewRomanPS-BoldMT-11" transform="translate(100 0)" />
     <use xlink:href="#TimesNewRomanPS-BoldMT-1b" transform="translate(125 0)" />
     <use xlink:href="#TimesNewRomanPS-BoldMT-8" transform="translate(175 0)" />
    </g>
   </g>
   <g id="leaderboard-model-libero-pro-six-non-long-0">
      <!-- RATS -->
      <g style="fill: #eef0f7" transform="translate(151.752031 313.885828) scale(0.19 -0.19)">
       <use xlink:href="#TimesNewRomanPSMT-35" />
       <use xlink:href="#TimesNewRomanPSMT-24" transform="translate(66.703125 0)" />
       <use xlink:href="#TimesNewRomanPSMT-37" transform="translate(127.84375 0)" />
       <use xlink:href="#TimesNewRomanPSMT-36" transform="translate(188.921875 0)" />
      </g>
     </g>
    </g><g class="rpent-bar-record" data-record-id="libero-pro-six-non-long--cap-x" data-center-x="371.857500"><g id="leaderboard-bar-libero-pro-six-non-long-1">
    <path d="M 355.867042 287.712  L 387.847958 287.712  L 387.847958 221.196096  L 355.867042 221.196096  z " clip-path="url(#pa220a6564b)" style="fill: #aeb7c6" />
   </g>
   <g id="leaderboard-value-libero-pro-six-non-long-1">
    <!-- 18.2% -->
    <g style="fill: #eef0f7" transform="translate(340.2325 208.232229) scale(0.23 -0.23)">
     <use xlink:href="#TimesNewRomanPS-BoldMT-14" />
     <use xlink:href="#TimesNewRomanPS-BoldMT-1b" transform="translate(50 0)" />
     <use xlink:href="#TimesNewRomanPS-BoldMT-11" transform="translate(100 0)" />
     <use xlink:href="#TimesNewRomanPS-BoldMT-15" transform="translate(125 0)" />
     <use xlink:href="#TimesNewRomanPS-BoldMT-8" transform="translate(175 0)" />
    </g>
   </g>
  <g id="leaderboard-model-libero-pro-six-non-long-1">
      <!-- Cap-X -->
      <g style="fill: #eef0f7" transform="translate(346.529609 313.885828) scale(0.19 -0.19)">
       <use xlink:href="#TimesNewRomanPSMT-26" />
       <use xlink:href="#TimesNewRomanPSMT-44" transform="translate(66.703125 0)" />
       <use xlink:href="#TimesNewRomanPSMT-53" transform="translate(111.09375 0)" />
       <use xlink:href="#TimesNewRomanPSMT-10" transform="translate(161.09375 0)" />
       <use xlink:href="#TimesNewRomanPSMT-3b" transform="translate(194.390625 0)" />
      </g>
     </g>
    </g></g>
  <g id="text_1">
   <!-- LIBERO-PRO · six non-Long items -->
   <g style="fill: #eef0f7" transform="translate(17.64 31.231125) scale(0.26 -0.26)">
    <use xlink:href="#TimesNewRomanPS-BoldMT-2f" />
    <use xlink:href="#TimesNewRomanPS-BoldMT-2c" transform="translate(66.703125 0)" />
    <use xlink:href="#TimesNewRomanPS-BoldMT-25" transform="translate(105.625 0)" />
    <use xlink:href="#TimesNewRomanPS-BoldMT-28" transform="translate(172.328125 0)" />
    <use xlink:href="#TimesNewRomanPS-BoldMT-35" transform="translate(239.03125 0)" />
    <use xlink:href="#TimesNewRomanPS-BoldMT-32" transform="translate(311.25 0)" />
    <use xlink:href="#TimesNewRomanPS-BoldMT-10" transform="translate(389.03125 0)" />
    <use xlink:href="#TimesNewRomanPS-BoldMT-33" transform="translate(422.328125 0)" />
    <use xlink:href="#TimesNewRomanPS-BoldMT-35" transform="translate(483.40625 0)" />
    <use xlink:href="#TimesNewRomanPS-BoldMT-32" transform="translate(555.625 0)" />
    <use xlink:href="#TimesNewRomanPS-BoldMT-3" transform="translate(633.40625 0)" />
    <use xlink:href="#TimesNewRomanPS-BoldMT-c2" transform="translate(658.40625 0)" />
    <use xlink:href="#TimesNewRomanPS-BoldMT-3" transform="translate(683.40625 0)" />
    <use xlink:href="#TimesNewRomanPS-BoldMT-56" transform="translate(708.40625 0)" />
    <use xlink:href="#TimesNewRomanPS-BoldMT-4c" transform="translate(747.328125 0)" />
    <use xlink:href="#TimesNewRomanPS-BoldMT-5b" transform="translate(775.109375 0)" />
    <use xlink:href="#TimesNewRomanPS-BoldMT-3" transform="translate(825.109375 0)" />
    <use xlink:href="#TimesNewRomanPS-BoldMT-51" transform="translate(850.109375 0)" />
    <use xlink:href="#TimesNewRomanPS-BoldMT-52" transform="translate(905.71875 0)" />
    <use xlink:href="#TimesNewRomanPS-BoldMT-51" transform="translate(955.71875 0)" />
    <use xlink:href="#TimesNewRomanPS-BoldMT-10" transform="translate(1011.328125 0)" />
    <use xlink:href="#TimesNewRomanPS-BoldMT-2f" transform="translate(1044.625 0)" />
    <use xlink:href="#TimesNewRomanPS-BoldMT-52" transform="translate(1111.328125 0)" />
    <use xlink:href="#TimesNewRomanPS-BoldMT-51" transform="translate(1161.328125 0)" />
    <use xlink:href="#TimesNewRomanPS-BoldMT-4a" transform="translate(1216.9375 0)" />
    <use xlink:href="#TimesNewRomanPS-BoldMT-3" transform="translate(1266.9375 0)" />
    <use xlink:href="#TimesNewRomanPS-BoldMT-4c" transform="translate(1291.9375 0)" />
    <use xlink:href="#TimesNewRomanPS-BoldMT-57" transform="translate(1319.71875 0)" />
    <use xlink:href="#TimesNewRomanPS-BoldMT-48" transform="translate(1353.015625 0)" />
    <use xlink:href="#TimesNewRomanPS-BoldMT-50" transform="translate(1397.40625 0)" />
    <use xlink:href="#TimesNewRomanPS-BoldMT-56" transform="translate(1480.703125 0)" />
   </g>
  </g>
  <g id="text_2">
   <!-- Spatial/Object/Goal only · external reports -->
   <g style="fill: #b9c1d1" transform="translate(17.64 61.802031) scale(0.19 -0.19)">
    <use xlink:href="#TimesNewRomanPSMT-36" />
    <use xlink:href="#TimesNewRomanPSMT-53" transform="translate(55.609375 0)" />
    <use xlink:href="#TimesNewRomanPSMT-44" transform="translate(105.609375 0)" />
    <use xlink:href="#TimesNewRomanPSMT-57" transform="translate(150 0)" />
    <use xlink:href="#TimesNewRomanPSMT-4c" transform="translate(177.78125 0)" />
    <use xlink:href="#TimesNewRomanPSMT-44" transform="translate(205.5625 0)" />
    <use xlink:href="#TimesNewRomanPSMT-4f" transform="translate(249.953125 0)" />
    <use xlink:href="#TimesNewRomanPSMT-12" transform="translate(277.734375 0)" />
    <use xlink:href="#TimesNewRomanPSMT-32" transform="translate(305.515625 0)" />
    <use xlink:href="#TimesNewRomanPSMT-45" transform="translate(377.734375 0)" />
    <use xlink:href="#TimesNewRomanPSMT-4d" transform="translate(427.734375 0)" />
    <use xlink:href="#TimesNewRomanPSMT-48" transform="translate(455.515625 0)" />
    <use xlink:href="#TimesNewRomanPSMT-46" transform="translate(499.90625 0)" />
    <use xlink:href="#TimesNewRomanPSMT-57" transform="translate(544.296875 0)" />
    <use xlink:href="#TimesNewRomanPSMT-12" transform="translate(572.078125 0)" />
    <use xlink:href="#TimesNewRomanPSMT-2a" transform="translate(599.859375 0)" />
    <use xlink:href="#TimesNewRomanPSMT-52" transform="translate(672.078125 0)" />
    <use xlink:href="#TimesNewRomanPSMT-44" transform="translate(722.078125 0)" />
    <use xlink:href="#TimesNewRomanPSMT-4f" transform="translate(766.46875 0)" />
    <use xlink:href="#TimesNewRomanPSMT-3" transform="translate(794.25 0)" />
    <use xlink:href="#TimesNewRomanPSMT-52" transform="translate(819.25 0)" />
    <use xlink:href="#TimesNewRomanPSMT-51" transform="translate(869.25 0)" />
    <use xlink:href="#TimesNewRomanPSMT-4f" transform="translate(919.25 0)" />
    <use xlink:href="#TimesNewRomanPSMT-5c" transform="translate(947.03125 0)" />
    <use xlink:href="#TimesNewRomanPSMT-3" transform="translate(997.03125 0)" />
    <use xlink:href="#TimesNewRomanPSMT-c2" transform="translate(1022.03125 0)" />
    <use xlink:href="#TimesNewRomanPSMT-3" transform="translate(1047.03125 0)" />
    <use xlink:href="#TimesNewRomanPSMT-48" transform="translate(1072.03125 0)" />
    <use xlink:href="#TimesNewRomanPSMT-5b" transform="translate(1116.421875 0)" />
    <use xlink:href="#TimesNewRomanPSMT-57" transform="translate(1166.421875 0)" />
    <use xlink:href="#TimesNewRomanPSMT-48" transform="translate(1194.203125 0)" />
    <use xlink:href="#TimesNewRomanPSMT-55" transform="translate(1238.59375 0)" />
    <use xlink:href="#TimesNewRomanPSMT-51" transform="translate(1271.890625 0)" />
    <use xlink:href="#TimesNewRomanPSMT-44" transform="translate(1321.890625 0)" />
    <use xlink:href="#TimesNewRomanPSMT-4f" transform="translate(1366.28125 0)" />
    <use xlink:href="#TimesNewRomanPSMT-3" transform="translate(1394.0625 0)" />
    <use xlink:href="#TimesNewRomanPSMT-55" transform="translate(1419.0625 0)" />
    <use xlink:href="#TimesNewRomanPSMT-48" transform="translate(1452.359375 0)" />
    <use xlink:href="#TimesNewRomanPSMT-53" transform="translate(1496.75 0)" />
    <use xlink:href="#TimesNewRomanPSMT-52" transform="translate(1546.75 0)" />
    <use xlink:href="#TimesNewRomanPSMT-55" transform="translate(1596.75 0)" />
    <use xlink:href="#TimesNewRomanPSMT-57" transform="translate(1630.046875 0)" />
    <use xlink:href="#TimesNewRomanPSMT-56" transform="translate(1657.828125 0)" />
   </g>
  </g>
  <g id="text_3">
   <!-- Table 3 -->
   <g style="fill: #b9c1d1" transform="translate(52.92 375.626875) scale(0.16 -0.16)">
    <use xlink:href="#TimesNewRomanPSMT-37" />
    <use xlink:href="#TimesNewRomanPSMT-44" transform="translate(54.09375 0)" />
    <use xlink:href="#TimesNewRomanPSMT-45" transform="translate(98.484375 0)" />
    <use xlink:href="#TimesNewRomanPSMT-4f" transform="translate(148.484375 0)" />
    <use xlink:href="#TimesNewRomanPSMT-48" transform="translate(176.265625 0)" />
    <use xlink:href="#TimesNewRomanPSMT-3" transform="translate(220.65625 0)" />
    <use xlink:href="#TimesNewRomanPSMT-16" transform="translate(245.65625 0)" />
   </g>
  </g>
 </g>
 </svg>
