<?xml version='1.0' encoding='utf-8'?>
<svg xmlns="http://www.w3.org/2000/svg" xmlns:cc="http://creativecommons.org/ns#" xmlns:dc="http://purl.org/dc/elements/1.1/" xmlns:rdf="http://www.w3.org/1999/02/22-rdf-syntax-ns#" xmlns:xlink="http://www.w3.org/1999/xlink" width="504pt" height="388.8pt" viewBox="0 0 504 388.8" version="1.1" data-axis-left="52.92" data-axis-width="441" data-axis-max="100" role="group" data-rpent-interactive="1">
 <title>standard-libero-en-light</title>
 <metadata>
  <rdf:RDF>
   <cc:Work>
    <dc:type rdf:resource="http://purl.org/dc/dcmitype/StillImage" />
    <dc:title>standard-libero-en-light</dc:title>
    <dc:description>AtomVLA : 97.0%; RPent / Opus-4.8 max: 96.0%; π_RLinf : 95.3%; π0 : 94.2%; OpenVLA : 76.5%; Y-axis: 0–100%
{"record_ids": ["standard-libero--atomvla", "standard-libero--opus-4-8-max", "standard-libero--pi-rlinf", "standard-libero--pi0", "standard-libero--openvla"], "source_note": {"en": "Table 2", "zh": "表 2"}, "subtitle": ["Overall · four standard suites", "总体 · 四个标准套件"], "title": {"en": "Standard LIBERO", "zh": "Standard LIBERO"}}</dc:description>
    <dc:format>image/svg+xml</dc:format>
    <dc:creator>
     <cc:Agent>
      <dc:title>RPent leaderboard renderer</dc:title>
     </cc:Agent>
    </dc:creator>
   </cc:Work>
  </rdf:RDF>
 </metadata>
 <defs>
  <style type="text/css">*{stroke-linejoin: round; stroke-linecap: butt}</style>
 <path id="TimesNewRomanPSMT-24" d="M 2928 1419  L 1288 1419  L 1000 750  Q 894 503 894 381  Q 894 284 986 211  Q 1078 138 1384 116  L 1384 0  L 50 0  L 50 116  Q 316 163 394 238  Q 553 388 747 847  L 2238 4334  L 2347 4334  L 3822 809  Q 4000 384 4145 257  Q 4291 131 4550 116  L 4550 0  L 2878 0  L 2878 116  Q 3131 128 3220 200  Q 3309 272 3309 375  Q 3309 513 3184 809  L 2928 1419  z M 2841 1650  L 2122 3363  L 1384 1650  L 2841 1650  z " transform="scale(0.015625)" />
        <path id="TimesNewRomanPSMT-57" d="M 1031 3803  L 1031 2863  L 1700 2863  L 1700 2644  L 1031 2644  L 1031 788  Q 1031 509 1111 412  Q 1191 316 1316 316  Q 1419 316 1516 380  Q 1613 444 1666 569  L 1788 569  Q 1678 263 1478 108  Q 1278 -47 1066 -47  Q 922 -47 784 33  Q 647 113 581 261  Q 516 409 516 719  L 516 2644  L 63 2644  L 63 2747  Q 234 2816 414 2980  Q 594 3144 734 3369  Q 806 3488 934 3803  L 1031 3803  z " transform="scale(0.015625)" />
        <path id="TimesNewRomanPSMT-52" d="M 1600 2947  Q 2250 2947 2644 2453  Q 2978 2031 2978 1484  Q 2978 1100 2793 706  Q 2609 313 2286 112  Q 1963 -88 1566 -88  Q 919 -88 538 428  Q 216 863 216 1403  Q 216 1797 411 2186  Q 606 2575 925 2761  Q 1244 2947 1600 2947  z M 1503 2744  Q 1338 2744 1170 2645  Q 1003 2547 900 2300  Q 797 2053 797 1666  Q 797 1041 1045 587  Q 1294 134 1700 134  Q 2003 134 2200 384  Q 2397 634 2397 1244  Q 2397 2006 2069 2444  Q 1847 2744 1503 2744  z " transform="scale(0.015625)" />
        <path id="TimesNewRomanPSMT-50" d="M 1050 2338  Q 1363 2650 1419 2697  Q 1559 2816 1721 2881  Q 1884 2947 2044 2947  Q 2313 2947 2506 2790  Q 2700 2634 2766 2338  Q 3088 2713 3309 2830  Q 3531 2947 3766 2947  Q 3994 2947 4170 2830  Q 4347 2713 4450 2447  Q 4519 2266 4519 1878  L 4519 647  Q 4519 378 4559 278  Q 4591 209 4675 161  Q 4759 113 4950 113  L 4950 0  L 3538 0  L 3538 113  L 3597 113  Q 3781 113 3884 184  Q 3956 234 3988 344  Q 4000 397 4000 647  L 4000 1878  Q 4000 2228 3916 2372  Q 3794 2572 3525 2572  Q 3359 2572 3192 2489  Q 3025 2406 2788 2181  L 2781 2147  L 2788 2013  L 2788 647  Q 2788 353 2820 281  Q 2853 209 2943 161  Q 3034 113 3253 113  L 3253 0  L 1806 0  L 1806 113  Q 2044 113 2133 169  Q 2222 225 2256 338  Q 2272 391 2272 647  L 2272 1878  Q 2272 2228 2169 2381  Q 2031 2581 1784 2581  Q 1616 2581 1450 2491  Q 1191 2353 1050 2181  L 1050 647  Q 1050 366 1089 281  Q 1128 197 1204 155  Q 1281 113 1516 113  L 1516 0  L 100 0  L 100 113  Q 297 113 375 155  Q 453 197 493 289  Q 534 381 534 647  L 534 1741  Q 534 2213 506 2350  Q 484 2453 437 2492  Q 391 2531 309 2531  Q 222 2531 100 2484  L 53 2597  L 916 2947  L 1050 2947  L 1050 2338  z " transform="scale(0.015625)" />
        <path id="TimesNewRomanPSMT-39" d="M 4544 4238  L 4544 4122  Q 4319 4081 4203 3978  Q 4038 3825 3909 3509  L 2431 -97  L 2316 -97  L 728 3556  Q 606 3838 556 3900  Q 478 3997 364 4051  Q 250 4106 56 4122  L 56 4238  L 1788 4238  L 1788 4122  Q 1494 4094 1406 4022  Q 1319 3950 1319 3838  Q 1319 3681 1463 3350  L 2541 866  L 3541 3319  Q 3688 3681 3688 3822  Q 3688 3913 3597 3995  Q 3506 4078 3291 4113  Q 3275 4116 3238 4122  L 3238 4238  L 4544 4238  z " transform="scale(0.015625)" />
        <path id="TimesNewRomanPSMT-2f" d="M 3669 1172  L 3772 1150  L 3409 0  L 128 0  L 128 116  L 288 116  Q 556 116 672 291  Q 738 391 738 753  L 738 3488  Q 738 3884 650 3984  Q 528 4122 288 4122  L 128 4122  L 128 4238  L 2047 4238  L 2047 4122  Q 1709 4125 1573 4059  Q 1438 3994 1388 3894  Q 1338 3794 1338 3416  L 1338 753  Q 1338 494 1388 397  Q 1425 331 1503 300  Q 1581 269 1991 269  L 2300 269  Q 2788 269 2984 341  Q 3181 413 3343 595  Q 3506 778 3669 1172  z " transform="scale(0.015625)" />
       <path id="TimesNewRomanPSMT-32" d="M 2341 4334  Q 3166 4334 3770 3707  Q 4375 3081 4375 2144  Q 4375 1178 3765 540  Q 3156 -97 2291 -97  Q 1416 -97 820 525  Q 225 1147 225 2134  Q 225 3144 913 3781  Q 1509 4334 2341 4334  z M 2281 4106  Q 1713 4106 1369 3684  Q 941 3159 941 2147  Q 941 1109 1384 550  Q 1725 125 2284 125  Q 2881 125 3270 590  Q 3659 1056 3659 2059  Q 3659 3147 3231 3681  Q 2888 4106 2281 4106  z " transform="scale(0.015625)" />
        <path id="TimesNewRomanPSMT-53" d="M -6 2578  L 875 2934  L 994 2934  L 994 2266  Q 1216 2644 1439 2795  Q 1663 2947 1909 2947  Q 2341 2947 2628 2609  Q 2981 2197 2981 1534  Q 2981 794 2556 309  Q 2206 -88 1675 -88  Q 1444 -88 1275 -22  Q 1150 25 994 166  L 994 -706  Q 994 -1000 1030 -1079  Q 1066 -1159 1155 -1206  Q 1244 -1253 1478 -1253  L 1478 -1369  L -22 -1369  L -22 -1253  L 56 -1253  Q 228 -1256 350 -1188  Q 409 -1153 442 -1076  Q 475 -1000 475 -688  L 475 2019  Q 475 2297 450 2372  Q 425 2447 370 2484  Q 316 2522 222 2522  Q 147 2522 31 2478  L -6 2578  z M 994 2081  L 994 1013  Q 994 666 1022 556  Q 1066 375 1236 237  Q 1406 100 1666 100  Q 1978 100 2172 344  Q 2425 663 2425 1241  Q 2425 1897 2138 2250  Q 1938 2494 1663 2494  Q 1513 2494 1366 2419  Q 1253 2363 994 2081  z " transform="scale(0.015625)" />
        <path id="TimesNewRomanPSMT-58" d="M 2709 2863  L 2709 1128  Q 2709 631 2732 520  Q 2756 409 2807 365  Q 2859 322 2928 322  Q 3025 322 3147 375  L 3191 266  L 2334 -88  L 2194 -88  L 2194 519  Q 1825 119 1631 15  Q 1438 -88 1222 -88  Q 981 -88 804 51  Q 628 191 559 409  Q 491 628 491 1028  L 491 2306  Q 491 2509 447 2587  Q 403 2666 317 2708  Q 231 2750 6 2747  L 6 2863  L 1009 2863  L 1009 947  Q 1009 547 1148 422  Q 1288 297 1484 297  Q 1619 297 1789 381  Q 1959 466 2194 703  L 2194 2325  Q 2194 2569 2105 2655  Q 2016 2741 1734 2747  L 1734 2863  L 2709 2863  z " transform="scale(0.015625)" />
        <path id="TimesNewRomanPSMT-56" d="M 2050 2947  L 2050 1972  L 1947 1972  Q 1828 2431 1642 2597  Q 1456 2763 1169 2763  Q 950 2763 815 2647  Q 681 2531 681 2391  Q 681 2216 781 2091  Q 878 1963 1175 1819  L 1631 1597  Q 2266 1288 2266 781  Q 2266 391 1970 151  Q 1675 -88 1309 -88  Q 1047 -88 709 6  Q 606 38 541 38  Q 469 38 428 -44  L 325 -44  L 325 978  L 428 978  Q 516 541 762 319  Q 1009 97 1316 97  Q 1531 97 1667 223  Q 1803 350 1803 528  Q 1803 744 1651 891  Q 1500 1038 1047 1263  Q 594 1488 453 1669  Q 313 1847 313 2119  Q 313 2472 555 2709  Q 797 2947 1181 2947  Q 1350 2947 1591 2875  Q 1750 2828 1803 2828  Q 1853 2828 1881 2850  Q 1909 2872 1947 2947  L 2050 2947  z " transform="scale(0.015625)" />
        <path id="TimesNewRomanPSMT-10" d="M 259 1672  L 1875 1672  L 1875 1200  L 259 1200  L 259 1672  z " transform="scale(0.015625)" />
        <path id="TimesNewRomanPSMT-17" d="M 2978 1563  L 2978 1119  L 2409 1119  L 2409 0  L 1894 0  L 1894 1119  L 100 1119  L 100 1519  L 2066 4325  L 2409 4325  L 2409 1563  L 2978 1563  z M 1894 1563  L 1894 3666  L 406 1563  L 1894 1563  z " transform="scale(0.015625)" />
        <path id="TimesNewRomanPSMT-11" d="M 800 606  Q 947 606 1047 504  Q 1147 403 1147 259  Q 1147 116 1045 14  Q 944 -88 800 -88  Q 656 -88 554 14  Q 453 116 453 259  Q 453 406 554 506  Q 656 606 800 606  z " transform="scale(0.015625)" />
        <path id="TimesNewRomanPSMT-1b" d="M 1228 2134  Q 725 2547 579 2797  Q 434 3047 434 3316  Q 434 3728 753 4026  Q 1072 4325 1600 4325  Q 2113 4325 2425 4047  Q 2738 3769 2738 3413  Q 2738 3175 2569 2928  Q 2400 2681 1866 2347  Q 2416 1922 2594 1678  Q 2831 1359 2831 1006  Q 2831 559 2490 242  Q 2150 -75 1597 -75  Q 994 -75 656 303  Q 388 606 388 966  Q 388 1247 577 1523  Q 766 1800 1228 2134  z M 1719 2469  Q 2094 2806 2194 3001  Q 2294 3197 2294 3444  Q 2294 3772 2109 3958  Q 1925 4144 1606 4144  Q 1288 4144 1088 3959  Q 888 3775 888 3528  Q 888 3366 970 3203  Q 1053 3041 1206 2894  L 1719 2469  z M 1375 2016  Q 1116 1797 991 1539  Q 866 1281 866 981  Q 866 578 1086 336  Q 1306 94 1647 94  Q 1984 94 2187 284  Q 2391 475 2391 747  Q 2391 972 2272 1150  Q 2050 1481 1375 2016  z " transform="scale(0.015625)" />
       <path id="TimesNewRomanPSMT-44" d="M 1822 413  Q 1381 72 1269 19  Q 1100 -59 909 -59  Q 613 -59 420 144  Q 228 347 228 678  Q 228 888 322 1041  Q 450 1253 767 1440  Q 1084 1628 1822 1897  L 1822 2009  Q 1822 2438 1686 2597  Q 1550 2756 1291 2756  Q 1094 2756 978 2650  Q 859 2544 859 2406  L 866 2225  Q 866 2081 792 2003  Q 719 1925 600 1925  Q 484 1925 411 2006  Q 338 2088 338 2228  Q 338 2497 613 2722  Q 888 2947 1384 2947  Q 1766 2947 2009 2819  Q 2194 2722 2281 2516  Q 2338 2381 2338 1966  L 2338 994  Q 2338 584 2353 492  Q 2369 400 2405 369  Q 2441 338 2488 338  Q 2538 338 2575 359  Q 2641 400 2828 588  L 2828 413  Q 2478 -56 2159 -56  Q 2006 -56 1915 50  Q 1825 156 1822 413  z M 1822 616  L 1822 1706  Q 1350 1519 1213 1441  Q 966 1303 859 1153  Q 753 1003 753 825  Q 753 600 887 451  Q 1022 303 1197 303  Q 1434 303 1822 616  z " transform="scale(0.015625)" />
        <path id="TimesNewRomanPSMT-5b" d="M 84 2863  L 1431 2863  L 1431 2747  Q 1303 2747 1251 2703  Q 1200 2659 1200 2588  Q 1200 2513 1309 2356  Q 1344 2306 1413 2200  L 1616 1875  L 1850 2200  Q 2075 2509 2075 2591  Q 2075 2656 2022 2701  Q 1969 2747 1850 2747  L 1850 2863  L 2819 2863  L 2819 2747  Q 2666 2738 2553 2663  Q 2400 2556 2134 2200  L 1744 1678  L 2456 653  Q 2719 275 2831 198  Q 2944 122 3122 113  L 3122 0  L 1772 0  L 1772 113  Q 1913 113 1991 175  Q 2050 219 2050 291  Q 2050 363 1850 653  L 1431 1266  L 972 653  Q 759 369 759 316  Q 759 241 829 180  Q 900 119 1041 113  L 1041 0  L 106 0  L 106 113  Q 219 128 303 191  Q 422 281 703 653  L 1303 1450  L 759 2238  Q 528 2575 401 2661  Q 275 2747 84 2747  L 84 2863  z " transform="scale(0.015625)" />
       <path id="TimesNewRomanPSMT-28c" d="M 3103 2863  L 3103 2406  L 2378 2406  L 2316 1456  Q 2297 1209 2297 1028  Q 2297 594 2398 498  Q 2500 403 2644 403  Q 2944 403 3000 781  L 3113 781  Q 3009 -88 2419 -88  Q 2144 -88 1976 81  Q 1809 250 1809 581  Q 1809 800 1875 1506  L 1959 2406  L 1297 2406  Q 1231 1269 1139 744  Q 1047 219 936 65  Q 825 -88 634 -88  Q 491 -88 392 -3  Q 294 81 294 219  Q 294 350 463 578  Q 709 909 831 1267  Q 953 1625 1016 2406  L 803 2406  Q 547 2406 411 2292  Q 275 2178 153 1966  L 41 1966  Q 131 2300 275 2515  Q 419 2731 570 2797  Q 722 2863 1109 2863  L 3103 2863  z " transform="scale(0.015625)" />
        <path id="TimesNewRomanPSMT-42" d="M 3256 -1381  L -53 -1381  L -53 -1119  L 3256 -1119  L 3256 -1381  z " transform="scale(0.015625)" />
        <path id="TimesNewRomanPSMT-35" d="M 4325 0  L 3194 0  L 1759 1981  Q 1600 1975 1500 1975  Q 1459 1975 1412 1976  Q 1366 1978 1316 1981  L 1316 750  Q 1316 350 1403 253  Q 1522 116 1759 116  L 1925 116  L 1925 0  L 109 0  L 109 116  L 269 116  Q 538 116 653 291  Q 719 388 719 750  L 719 3488  Q 719 3888 631 3984  Q 509 4122 269 4122  L 109 4122  L 109 4238  L 1653 4238  Q 2328 4238 2648 4139  Q 2969 4041 3192 3777  Q 3416 3513 3416 3147  Q 3416 2756 3161 2468  Q 2906 2181 2372 2063  L 3247 847  Q 3547 428 3762 290  Q 3978 153 4325 116  L 4325 0  z M 1316 2178  Q 1375 2178 1419 2176  Q 1463 2175 1491 2175  Q 2097 2175 2405 2437  Q 2713 2700 2713 3106  Q 2713 3503 2464 3751  Q 2216 4000 1806 4000  Q 1625 4000 1316 3941  L 1316 2178  z " transform="scale(0.015625)" />
        <path id="TimesNewRomanPSMT-4c" d="M 928 4444  Q 1059 4444 1151 4351  Q 1244 4259 1244 4128  Q 1244 3997 1151 3903  Q 1059 3809 928 3809  Q 797 3809 703 3903  Q 609 3997 609 4128  Q 609 4259 701 4351  Q 794 4444 928 4444  z M 1188 2947  L 1188 647  Q 1188 378 1227 289  Q 1266 200 1342 156  Q 1419 113 1622 113  L 1622 0  L 231 0  L 231 113  Q 441 113 512 153  Q 584 194 626 287  Q 669 381 669 647  L 669 1750  Q 669 2216 641 2353  Q 619 2453 572 2492  Q 525 2531 444 2531  Q 356 2531 231 2484  L 188 2597  L 1050 2947  L 1188 2947  z " transform="scale(0.015625)" />
        <path id="TimesNewRomanPSMT-51" d="M 1034 2341  Q 1538 2947 1994 2947  Q 2228 2947 2397 2830  Q 2566 2713 2666 2444  Q 2734 2256 2734 1869  L 2734 647  Q 2734 375 2778 278  Q 2813 200 2889 156  Q 2966 113 3172 113  L 3172 0  L 1756 0  L 1756 113  L 1816 113  Q 2016 113 2095 173  Q 2175 234 2206 353  Q 2219 400 2219 647  L 2219 1819  Q 2219 2209 2117 2386  Q 2016 2563 1775 2563  Q 1403 2563 1034 2156  L 1034 647  Q 1034 356 1069 288  Q 1113 197 1189 155  Q 1266 113 1500 113  L 1500 0  L 84 0  L 84 113  L 147 113  Q 366 113 442 223  Q 519 334 519 647  L 519 1709  Q 519 2225 495 2337  Q 472 2450 423 2490  Q 375 2531 294 2531  Q 206 2531 84 2484  L 38 2597  L 900 2947  L 1034 2947  L 1034 2341  z " transform="scale(0.015625)" />
        <path id="TimesNewRomanPSMT-49" d="M 1319 2638  L 1319 756  Q 1319 356 1406 250  Q 1522 113 1716 113  L 1975 113  L 1975 0  L 266 0  L 266 113  L 394 113  Q 519 113 622 175  Q 725 238 764 344  Q 803 450 803 756  L 803 2638  L 247 2638  L 247 2863  L 803 2863  L 803 3050  Q 803 3478 940 3775  Q 1078 4072 1361 4255  Q 1644 4438 1997 4438  Q 2325 4438 2600 4225  Q 2781 4084 2781 3909  Q 2781 3816 2700 3733  Q 2619 3650 2525 3650  Q 2453 3650 2373 3701  Q 2294 3753 2178 3923  Q 2063 4094 1966 4153  Q 1869 4213 1750 4213  Q 1606 4213 1506 4136  Q 1406 4059 1362 3898  Q 1319 3738 1319 3069  L 1319 2863  L 2056 2863  L 2056 2638  L 1319 2638  z " transform="scale(0.015625)" />
       <path id="TimesNewRomanPSMT-13" d="M 231 2094  Q 231 2819 450 3342  Q 669 3866 1031 4122  Q 1313 4325 1613 4325  Q 2100 4325 2488 3828  Q 2972 3213 2972 2159  Q 2972 1422 2759 906  Q 2547 391 2217 158  Q 1888 -75 1581 -75  Q 975 -75 572 641  Q 231 1244 231 2094  z M 844 2016  Q 844 1141 1059 588  Q 1238 122 1591 122  Q 1759 122 1940 273  Q 2122 425 2216 781  Q 2359 1319 2359 2297  Q 2359 3022 2209 3506  Q 2097 3866 1919 4016  Q 1791 4119 1609 4119  Q 1397 4119 1231 3928  Q 1006 3669 925 3112  Q 844 2556 844 2016  z " transform="scale(0.015625)" />
       <path id="TimesNewRomanPSMT-48" d="M 681 1784  Q 678 1147 991 784  Q 1303 422 1725 422  Q 2006 422 2214 576  Q 2422 731 2563 1106  L 2659 1044  Q 2594 616 2278 264  Q 1963 -88 1488 -88  Q 972 -88 605 314  Q 238 716 238 1394  Q 238 2128 614 2539  Q 991 2950 1559 2950  Q 2041 2950 2350 2633  Q 2659 2316 2659 1784  L 681 1784  z M 681 1966  L 2006 1966  Q 1991 2241 1941 2353  Q 1863 2528 1708 2628  Q 1553 2728 1384 2728  Q 1125 2728 920 2526  Q 716 2325 681 1966  z " transform="scale(0.015625)" />
       <path id="TimesNewRomanPSMT-8" d="M 4350 4334  L 1263 -175  L 984 -175  L 4072 4334  L 4350 4334  z M 1138 4334  Q 1559 4334 1792 3984  Q 2025 3634 2025 3181  Q 2025 2638 1762 2341  Q 1500 2044 1131 2044  Q 884 2044 678 2180  Q 472 2316 348 2584  Q 225 2853 225 3181  Q 225 3509 350 3786  Q 475 4063 692 4198  Q 909 4334 1138 4334  z M 1128 4159  Q 969 4159 845 3971  Q 722 3784 722 3184  Q 722 2750 791 2522  Q 844 2350 956 2256  Q 1022 2200 1119 2200  Q 1269 2200 1375 2363  Q 1531 2603 1531 3166  Q 1531 3759 1378 4000  Q 1278 4159 1128 4159  z M 4206 2103  Q 4428 2103 4648 1962  Q 4869 1822 4989 1553  Q 5109 1284 5109 963  Q 5109 409 4843 117  Q 4578 -175 4216 -175  Q 3988 -175 3773 -34  Q 3559 106 3436 367  Q 3313 628 3313 963  Q 3313 1291 3436 1562  Q 3559 1834 3773 1968  Q 3988 2103 4206 2103  z M 4209 1938  Q 4059 1938 3950 1769  Q 3809 1550 3809 941  Q 3809 381 3953 159  Q 4059 0 4209 0  Q 4353 0 4466 172  Q 4616 400 4616 956  Q 4616 1544 4466 1778  Q 4363 1938 4209 1938  z " transform="scale(0.015625)" />
       <path id="TimesNewRomanPSMT-15" d="M 2934 816  L 2638 0  L 138 0  L 138 116  Q 1241 1122 1691 1759  Q 2141 2397 2141 2925  Q 2141 3328 1894 3587  Q 1647 3847 1303 3847  Q 991 3847 742 3664  Q 494 3481 375 3128  L 259 3128  Q 338 3706 661 4015  Q 984 4325 1469 4325  Q 1984 4325 2329 3994  Q 2675 3663 2675 3213  Q 2675 2891 2525 2569  Q 2294 2063 1775 1497  Q 997 647 803 472  L 1909 472  Q 2247 472 2383 497  Q 2519 522 2628 598  Q 2738 675 2819 816  L 2934 816  z " transform="scale(0.015625)" />
       <path id="TimesNewRomanPSMT-19" d="M 2869 4325  L 2869 4209  Q 2456 4169 2195 4045  Q 1934 3922 1679 3669  Q 1425 3416 1258 3105  Q 1091 2794 978 2366  Q 1428 2675 1881 2675  Q 2316 2675 2634 2325  Q 2953 1975 2953 1425  Q 2953 894 2631 456  Q 2244 -75 1606 -75  Q 1172 -75 869 213  Q 275 772 275 1663  Q 275 2231 503 2743  Q 731 3256 1154 3653  Q 1578 4050 1965 4187  Q 2353 4325 2688 4325  L 2869 4325  z M 925 2138  Q 869 1716 869 1456  Q 869 1156 980 804  Q 1091 453 1309 247  Q 1469 100 1697 100  Q 1969 100 2183 356  Q 2397 613 2397 1088  Q 2397 1622 2184 2012  Q 1972 2403 1581 2403  Q 1463 2403 1327 2353  Q 1191 2303 925 2138  z " transform="scale(0.015625)" />
       <path id="TimesNewRomanPSMT-14" d="M 750 3822  L 1781 4325  L 1884 4325  L 1884 747  Q 1884 391 1914 303  Q 1944 216 2037 169  Q 2131 122 2419 116  L 2419 0  L 825 0  L 825 116  Q 1125 122 1212 167  Q 1300 213 1334 289  Q 1369 366 1369 747  L 1369 3034  Q 1369 3497 1338 3628  Q 1316 3728 1258 3775  Q 1200 3822 1119 3822  Q 1003 3822 797 3725  L 750 3822  z " transform="scale(0.015625)" />
       <path id="TimesNewRomanPS-BoldMT-1c" d="M 197 -88  L 197 0  Q 716 119 1077 350  Q 1438 581 1648 922  Q 1859 1263 1944 1706  Q 1750 1606 1614 1567  Q 1478 1528 1328 1528  Q 847 1528 526 1875  Q 206 2222 206 2825  Q 206 3244 379 3592  Q 553 3941 875 4133  Q 1197 4325 1544 4325  Q 1916 4325 2247 4112  Q 2578 3900 2775 3497  Q 2972 3094 2972 2578  Q 2972 1909 2651 1296  Q 2331 684 1697 314  Q 1063 -56 197 -88  z M 1991 1969  Q 2022 2319 2022 2584  Q 2022 3153 1891 3644  Q 1816 3916 1669 4044  Q 1591 4113 1466 4113  Q 1309 4113 1222 3978  Q 1100 3794 1100 3275  Q 1100 2409 1306 2081  Q 1441 1869 1669 1869  Q 1791 1869 1991 1969  z " transform="scale(0.015625)" />
      <path id="TimesNewRomanPS-BoldMT-1a" d="M 1134 -88  L 2288 3409  L 1409 3409  Q 894 3409 634 3275  Q 453 3181 334 2922  L 216 2922  L 522 4238  L 3047 4238  L 1625 -88  L 1134 -88  z " transform="scale(0.015625)" />
      <path id="TimesNewRomanPS-BoldMT-11" d="M 800 963  Q 1019 963 1170 809  Q 1322 656 1322 441  Q 1322 225 1169 73  Q 1016 -78 800 -78  Q 584 -78 432 73  Q 281 225 281 441  Q 281 656 432 809  Q 584 963 800 963  z " transform="scale(0.015625)" />
      <path id="TimesNewRomanPS-BoldMT-13" d="M 2966 2119  Q 2966 1484 2788 934  Q 2681 597 2501 381  Q 2322 166 2094 39  Q 1866 -88 1597 -88  Q 1291 -88 1044 68  Q 797 225 606 516  Q 469 728 366 1081  Q 231 1559 231 2069  Q 231 2759 425 3338  Q 584 3816 909 4070  Q 1234 4325 1597 4325  Q 1966 4325 2286 4073  Q 2606 3822 2756 3397  Q 2966 2813 2966 2119  z M 2003 2125  Q 2003 3238 1991 3422  Q 1959 3856 1841 4009  Q 1763 4109 1588 4109  Q 1453 4109 1375 4034  Q 1259 3925 1218 3648  Q 1178 3372 1178 1719  Q 1178 819 1241 513  Q 1288 291 1375 216  Q 1463 141 1606 141  Q 1763 141 1841 241  Q 1972 416 1991 781  L 2003 2125  z " transform="scale(0.015625)" />
      <path id="TimesNewRomanPS-BoldMT-8" d="M 4916 4334  L 1906 -178  L 1488 -178  L 4494 4334  L 4916 4334  z M 1494 4334  Q 1938 4334 2242 4020  Q 2547 3706 2547 3209  Q 2547 2700 2240 2383  Q 1934 2066 1481 2066  Q 1034 2066 739 2372  Q 444 2678 444 3178  Q 444 3694 747 4014  Q 1050 4334 1494 4334  z M 1494 4169  Q 1425 4169 1381 4128  Q 1303 4056 1264 3879  Q 1225 3703 1225 3150  Q 1225 2709 1278 2469  Q 1309 2331 1384 2263  Q 1431 2222 1494 2222  Q 1563 2222 1603 2259  Q 1675 2325 1709 2472  Q 1763 2709 1763 3138  Q 1763 3663 1713 3897  Q 1678 4059 1600 4134  Q 1563 4169 1494 4169  z M 4894 2097  Q 5347 2097 5651 1786  Q 5956 1475 5956 972  Q 5956 463 5647 144  Q 5338 -175 4900 -175  Q 4466 -175 4161 144  Q 3856 463 3856 963  Q 3856 1466 4153 1781  Q 4450 2097 4894 2097  z M 4903 1934  Q 4841 1934 4797 1897  Q 4722 1828 4681 1658  Q 4641 1488 4641 1006  Q 4641 494 4688 269  Q 4722 109 4803 38  Q 4844 0 4909 0  Q 4969 0 5006 34  Q 5084 106 5122 269  Q 5175 497 5175 959  Q 5175 1447 5125 1672  Q 5088 1834 5013 1900  Q 4975 1934 4903 1934  z " transform="scale(0.015625)" />
     <path id="TimesNewRomanPS-BoldMT-19" d="M 3006 4325  L 3006 4238  Q 2441 4094 2098 3867  Q 1756 3641 1557 3317  Q 1359 2994 1250 2516  Q 1388 2609 1478 2638  Q 1681 2700 1888 2700  Q 2363 2700 2680 2354  Q 2997 2009 2997 1413  Q 2997 994 2825 644  Q 2653 294 2337 103  Q 2022 -88 1663 -88  Q 1272 -88 940 126  Q 609 341 423 753  Q 238 1166 238 1650  Q 238 2363 580 2977  Q 922 3591 1551 3955  Q 2181 4319 3006 4325  z M 1209 2263  Q 1184 1831 1184 1631  Q 1184 1200 1267 797  Q 1350 394 1494 231  Q 1597 116 1738 116  Q 1881 116 1993 283  Q 2106 450 2106 963  Q 2106 1825 1897 2153  Q 1763 2366 1534 2366  Q 1409 2366 1209 2263  z " transform="scale(0.015625)" />
     <path id="TimesNewRomanPS-BoldMT-18" d="M 975 4238  L 2959 4238  L 2644 3431  L 975 3431  L 816 3009  Q 1894 2969 2475 2472  Q 2953 2063 2953 1453  Q 2953 1063 2731 689  Q 2509 316 2106 114  Q 1703 -88 1222 -88  Q 703 -88 425 106  Q 231 244 231 419  Q 231 553 332 656  Q 434 759 569 759  Q 691 759 816 709  Q 941 659 1244 447  Q 1434 316 1572 266  Q 1669 228 1791 228  Q 2047 228 2226 415  Q 2406 603 2406 866  Q 2406 1416 1856 1759  Q 1306 2103 469 2103  Q 384 2103 216 2100  L 975 4238  z " transform="scale(0.015625)" />
      <path id="TimesNewRomanPS-BoldMT-16" d="M 947 2125  L 947 2234  Q 1303 2338 1440 2427  Q 1578 2516 1678 2698  Q 1778 2881 1778 3069  Q 1778 3328 1589 3514  Q 1400 3700 1119 3700  Q 681 3700 375 3238  L 259 3278  Q 484 3800 836 4062  Q 1188 4325 1619 4325  Q 2059 4325 2345 4056  Q 2631 3788 2631 3428  Q 2631 3194 2498 2976  Q 2366 2759 2081 2594  Q 2447 2416 2639 2155  Q 2831 1894 2831 1500  Q 2831 838 2351 373  Q 1872 -91 1066 -91  Q 528 -91 281 88  Q 103 213 103 409  Q 103 553 206 654  Q 309 756 444 756  Q 547 756 638 713  Q 688 688 992 439  Q 1297 191 1563 191  Q 1794 191 1959 373  Q 2125 556 2125 838  Q 2125 1266 1825 1627  Q 1525 1988 947 2125  z " transform="scale(0.015625)" />
     <path id="TimesNewRomanPS-BoldMT-17" d="M 159 1597  L 2172 4325  L 2553 4325  L 2553 1597  L 2941 1597  L 2941 950  L 2553 950  L 2553 0  L 1694 0  L 1694 950  L 159 950  L 159 1597  z M 463 1597  L 1694 1597  L 1694 3269  L 463 1597  z " transform="scale(0.015625)" />
      <path id="TimesNewRomanPS-BoldMT-15" d="M 2650 0  L 156 0  L 156 69  Q 1303 1434 1548 1906  Q 1794 2378 1794 2828  Q 1794 3156 1591 3373  Q 1388 3591 1094 3591  Q 613 3591 347 3109  L 231 3150  Q 400 3750 744 4037  Q 1088 4325 1538 4325  Q 1859 4325 2125 4175  Q 2391 4025 2541 3764  Q 2691 3503 2691 3275  Q 2691 2859 2459 2431  Q 2144 1853 1081 819  L 1997 819  Q 2334 819 2436 847  Q 2538 875 2603 942  Q 2669 1009 2775 1225  L 2888 1225  L 2650 0  z " transform="scale(0.015625)" />
     <path id="TimesNewRomanPS-BoldMT-36" d="M 3006 4334  L 3041 2922  L 2913 2922  Q 2822 3453 2467 3776  Q 2113 4100 1700 4100  Q 1381 4100 1195 3929  Q 1009 3759 1009 3538  Q 1009 3397 1075 3288  Q 1166 3141 1366 2997  Q 1513 2894 2044 2631  Q 2788 2266 3047 1941  Q 3303 1616 3303 1197  Q 3303 666 2889 283  Q 2475 -100 1838 -100  Q 1638 -100 1459 -59  Q 1281 -19 1013 94  Q 863 156 766 156  Q 684 156 593 93  Q 503 31 447 -97  L 331 -97  L 331 1503  L 447 1503  Q 584 828 976 473  Q 1369 119 1822 119  Q 2172 119 2380 309  Q 2588 500 2588 753  Q 2588 903 2508 1043  Q 2428 1184 2265 1311  Q 2103 1438 1691 1641  Q 1113 1925 859 2125  Q 606 2325 470 2572  Q 334 2819 334 3116  Q 334 3622 706 3978  Q 1078 4334 1644 4334  Q 1850 4334 2044 4284  Q 2191 4247 2402 4145  Q 2613 4044 2697 4044  Q 2778 4044 2825 4094  Q 2872 4144 2913 4334  L 3006 4334  z " transform="scale(0.015625)" />
     <path id="TimesNewRomanPS-BoldMT-57" d="M 1375 3991  L 1375 2922  L 2069 2922  L 2069 2613  L 1375 2613  L 1375 809  Q 1375 556 1398 482  Q 1422 409 1481 364  Q 1541 319 1591 319  Q 1794 319 1975 628  L 2069 559  Q 1816 -41 1247 -41  Q 969 -41 776 114  Q 584 269 531 459  Q 500 566 500 1034  L 500 2613  L 119 2613  L 119 2722  Q 513 3000 789 3306  Q 1066 3613 1272 3991  L 1375 3991  z " transform="scale(0.015625)" />
     <path id="TimesNewRomanPS-BoldMT-44" d="M 1828 431  Q 1294 -41 869 -41  Q 619 -41 453 123  Q 288 288 288 534  Q 288 869 575 1136  Q 863 1403 1828 1847  L 1828 2141  Q 1828 2472 1792 2558  Q 1756 2644 1656 2708  Q 1556 2772 1431 2772  Q 1228 2772 1097 2681  Q 1016 2625 1016 2550  Q 1016 2484 1103 2388  Q 1222 2253 1222 2128  Q 1222 1975 1108 1867  Q 994 1759 809 1759  Q 613 1759 480 1878  Q 347 1997 347 2156  Q 347 2381 525 2586  Q 703 2791 1022 2900  Q 1341 3009 1684 3009  Q 2100 3009 2342 2832  Q 2584 2656 2656 2450  Q 2700 2319 2700 1847  L 2700 713  Q 2700 513 2715 461  Q 2731 409 2762 384  Q 2794 359 2834 359  Q 2916 359 3000 475  L 3094 400  Q 2938 169 2770 64  Q 2603 -41 2391 -41  Q 2141 -41 2000 76  Q 1859 194 1828 431  z M 1828 659  L 1828 1638  Q 1450 1416 1266 1163  Q 1144 994 1144 822  Q 1144 678 1247 569  Q 1325 484 1466 484  Q 1622 484 1828 659  z " transform="scale(0.015625)" />
     <path id="TimesNewRomanPS-BoldMT-51" d="M 1409 2922  L 1409 2544  Q 1634 2788 1840 2898  Q 2047 3009 2284 3009  Q 2569 3009 2756 2851  Q 2944 2694 3006 2459  Q 3056 2281 3056 1775  L 3056 638  Q 3056 300 3117 217  Q 3178 134 3372 113  L 3372 0  L 1894 0  L 1894 113  Q 2059 134 2131 250  Q 2181 328 2181 638  L 2181 1938  Q 2181 2297 2153 2390  Q 2125 2484 2058 2536  Q 1991 2588 1909 2588  Q 1641 2588 1409 2203  L 1409 638  Q 1409 309 1470 221  Q 1531 134 1697 113  L 1697 0  L 219 0  L 219 113  Q 403 131 481 231  Q 534 300 534 638  L 534 2288  Q 534 2619 473 2700  Q 413 2781 219 2806  L 219 2922  L 1409 2922  z " transform="scale(0.015625)" />
     <path id="TimesNewRomanPS-BoldMT-47" d="M 3056 4238  L 3056 875  Q 3056 534 3075 472  Q 3100 369 3170 319  Q 3241 269 3416 256  L 3416 153  L 2181 -88  L 2181 375  Q 1959 106 1786 9  Q 1613 -88 1394 -88  Q 834 -88 509 413  Q 247 819 247 1409  Q 247 1881 409 2254  Q 572 2628 855 2818  Q 1138 3009 1463 3009  Q 1672 3009 1834 2928  Q 1997 2847 2181 2644  L 2181 3525  Q 2181 3859 2153 3928  Q 2116 4019 2041 4062  Q 1966 4106 1759 4106  L 1759 4238  L 3056 4238  z M 2181 2256  Q 1950 2700 1616 2700  Q 1500 2700 1425 2638  Q 1309 2541 1236 2297  Q 1163 2053 1163 1550  Q 1163 997 1244 731  Q 1325 466 1466 347  Q 1538 288 1663 288  Q 1938 288 2181 719  L 2181 2256  z " transform="scale(0.015625)" />
     <path id="TimesNewRomanPS-BoldMT-55" d="M 1428 2922  L 1428 2259  Q 1719 2713 1937 2861  Q 2156 3009 2359 3009  Q 2534 3009 2639 2901  Q 2744 2794 2744 2597  Q 2744 2388 2642 2272  Q 2541 2156 2397 2156  Q 2231 2156 2109 2262  Q 1988 2369 1966 2381  Q 1934 2400 1894 2400  Q 1803 2400 1722 2331  Q 1594 2225 1528 2028  Q 1428 1725 1428 1359  L 1428 688  L 1431 513  Q 1431 334 1453 284  Q 1491 200 1564 161  Q 1638 122 1813 113  L 1813 0  L 234 0  L 234 113  Q 425 128 492 217  Q 559 306 559 688  L 559 2303  Q 559 2553 534 2622  Q 503 2709 443 2750  Q 384 2791 234 2806  L 234 2922  L 1428 2922  z " transform="scale(0.015625)" />
     <path id="TimesNewRomanPS-BoldMT-3" transform="scale(0.015625)" />
     <path id="TimesNewRomanPS-BoldMT-2f" d="M 4041 1488  L 3881 0  L 119 0  L 119 116  L 259 116  Q 444 116 556 181  Q 638 225 681 331  Q 716 406 716 725  L 716 3513  Q 716 3838 681 3919  Q 647 4000 542 4061  Q 438 4122 259 4122  L 119 4122  L 119 4238  L 2378 4238  L 2378 4122  L 2194 4122  Q 2009 4122 1897 4056  Q 1816 4013 1769 3906  Q 1734 3831 1734 3513  L 1734 813  Q 1734 488 1771 398  Q 1809 309 1919 266  Q 1997 238 2297 238  L 2650 238  Q 2988 238 3213 356  Q 3438 475 3602 731  Q 3766 988 3913 1488  L 4041 1488  z " transform="scale(0.015625)" />
     <path id="TimesNewRomanPS-BoldMT-2c" d="M 2344 116  L 2344 0  L 128 0  L 128 116  L 269 116  Q 453 116 566 181  Q 647 225 691 331  Q 725 406 725 725  L 725 3513  Q 725 3838 690 3919  Q 656 4000 551 4061  Q 447 4122 269 4122  L 128 4122  L 128 4238  L 2344 4238  L 2344 4122  L 2203 4122  Q 2019 4122 1906 4056  Q 1825 4013 1778 3906  Q 1744 3831 1744 3513  L 1744 725  Q 1744 400 1780 319  Q 1816 238 1920 177  Q 2025 116 2203 116  L 2344 116  z " transform="scale(0.015625)" />
     <path id="TimesNewRomanPS-BoldMT-25" d="M 2847 2247  Q 3450 2106 3694 1906  Q 4044 1622 4044 1169  Q 4044 691 3659 378  Q 3188 0 2288 0  L 134 0  L 134 116  Q 428 116 533 170  Q 638 225 680 312  Q 722 400 722 744  L 722 3494  Q 722 3838 680 3927  Q 638 4016 531 4069  Q 425 4122 134 4122  L 134 4238  L 2166 4238  Q 2894 4238 3197 4108  Q 3500 3978 3675 3720  Q 3850 3463 3850 3172  Q 3850 2866 3628 2627  Q 3406 2388 2847 2247  z M 1709 2331  Q 2153 2331 2364 2431  Q 2575 2531 2687 2712  Q 2800 2894 2800 3175  Q 2800 3456 2689 3636  Q 2578 3816 2372 3909  Q 2166 4003 1709 4000  L 1709 2331  z M 1709 2088  L 1709 728  L 1706 572  Q 1706 403 1792 317  Q 1878 231 2047 231  Q 2297 231 2508 342  Q 2719 453 2831 664  Q 2944 875 2944 1134  Q 2944 1431 2806 1667  Q 2669 1903 2428 1997  Q 2188 2091 1709 2088  z " transform="scale(0.015625)" />
     <path id="TimesNewRomanPS-BoldMT-28" d="M 1744 3994  L 1744 2269  L 1828 2269  Q 2231 2269 2412 2522  Q 2594 2775 2644 3269  L 2763 3269  L 2763 1050  L 2644 1050  Q 2606 1413 2486 1644  Q 2366 1875 2206 1954  Q 2047 2034 1744 2034  L 1744 841  Q 1744 491 1773 412  Q 1803 334 1884 284  Q 1966 234 2147 234  L 2400 234  Q 2994 234 3351 509  Q 3709 784 3866 1347  L 3981 1347  L 3791 0  L 128 0  L 128 116  L 269 116  Q 453 116 566 181  Q 647 225 691 331  Q 725 406 725 725  L 725 3513  Q 725 3800 709 3866  Q 678 3975 594 4034  Q 475 4122 269 4122  L 128 4122  L 128 4238  L 3675 4238  L 3675 2984  L 3556 2984  Q 3466 3444 3302 3644  Q 3138 3844 2838 3938  Q 2663 3994 2181 3994  L 1744 3994  z " transform="scale(0.015625)" />
     <path id="TimesNewRomanPS-BoldMT-35" d="M 1700 1931  L 1700 744  Q 1700 400 1742 311  Q 1784 222 1890 169  Q 1997 116 2288 116  L 2288 0  L 119 0  L 119 116  Q 413 116 517 170  Q 622 225 664 312  Q 706 400 706 744  L 706 3494  Q 706 3838 664 3927  Q 622 4016 515 4069  Q 409 4122 119 4122  L 119 4238  L 2088 4238  Q 2856 4238 3212 4131  Q 3569 4025 3794 3739  Q 4019 3453 4019 3069  Q 4019 2600 3681 2294  Q 3466 2100 3078 2003  L 4097 569  Q 4297 291 4381 222  Q 4509 125 4678 116  L 4678 0  L 3344 0  L 1978 1931  L 1700 1931  z M 1700 4009  L 1700 2153  L 1878 2153  Q 2313 2153 2528 2233  Q 2744 2313 2867 2520  Q 2991 2728 2991 3063  Q 2991 3547 2764 3778  Q 2538 4009 2034 4009  L 1700 4009  z " transform="scale(0.015625)" />
     <path id="TimesNewRomanPS-BoldMT-32" d="M 2472 4297  Q 3484 4334 4117 3706  Q 4750 3078 4750 2134  Q 4750 1328 4278 716  Q 3653 -97 2513 -97  Q 1369 -97 744 678  Q 250 1291 250 2131  Q 250 3075 892 3704  Q 1534 4334 2472 4297  z M 2509 4097  Q 1928 4097 1625 3503  Q 1378 3016 1378 2103  Q 1378 1019 1759 500  Q 2025 138 2503 138  Q 2825 138 3041 294  Q 3316 494 3469 933  Q 3622 1372 3622 2078  Q 3622 2919 3465 3336  Q 3309 3753 3067 3925  Q 2825 4097 2509 4097  z " transform="scale(0.015625)" />
    <path id="TimesNewRomanPSMT-59" d="M 53 2863  L 1400 2863  L 1400 2747  L 1313 2747  Q 1191 2747 1127 2687  Q 1063 2628 1063 2528  Q 1063 2419 1128 2269  L 1794 688  L 2463 2328  Q 2534 2503 2534 2594  Q 2534 2638 2509 2666  Q 2475 2713 2422 2730  Q 2369 2747 2206 2747  L 2206 2863  L 3141 2863  L 3141 2747  Q 2978 2734 2916 2681  Q 2806 2588 2719 2369  L 1703 -88  L 1575 -88  L 553 2328  Q 484 2497 421 2570  Q 359 2644 263 2694  Q 209 2722 53 2747  L 53 2863  z " transform="scale(0.015625)" />
     <path id="TimesNewRomanPSMT-55" d="M 1038 2947  L 1038 2303  Q 1397 2947 1775 2947  Q 1947 2947 2059 2842  Q 2172 2738 2172 2600  Q 2172 2478 2090 2393  Q 2009 2309 1897 2309  Q 1788 2309 1652 2417  Q 1516 2525 1450 2525  Q 1394 2525 1328 2463  Q 1188 2334 1038 2041  L 1038 669  Q 1038 431 1097 309  Q 1138 225 1241 169  Q 1344 113 1538 113  L 1538 0  L 72 0  L 72 113  Q 291 113 397 181  Q 475 231 506 341  Q 522 394 522 644  L 522 1753  Q 522 2253 501 2348  Q 481 2444 426 2487  Q 372 2531 291 2531  Q 194 2531 72 2484  L 41 2597  L 906 2947  L 1038 2947  z " transform="scale(0.015625)" />
     <path id="TimesNewRomanPSMT-4f" d="M 1184 4444  L 1184 647  Q 1184 378 1223 290  Q 1263 203 1344 158  Q 1425 113 1647 113  L 1647 0  L 244 0  L 244 113  Q 441 113 512 153  Q 584 194 625 287  Q 666 381 666 647  L 666 3247  Q 666 3731 644 3842  Q 622 3953 573 3993  Q 525 4034 450 4034  Q 369 4034 244 3984  L 191 4094  L 1044 4444  L 1184 4444  z " transform="scale(0.015625)" />
     <path id="TimesNewRomanPSMT-3" transform="scale(0.015625)" />
     <path id="TimesNewRomanPSMT-c2" d="M 800 2466  Q 947 2466 1047 2364  Q 1147 2263 1147 2119  Q 1147 1975 1045 1873  Q 944 1772 800 1772  Q 656 1772 554 1873  Q 453 1975 453 2119  Q 453 2263 554 2364  Q 656 2466 800 2466  z " transform="scale(0.015625)" />
     <path id="TimesNewRomanPSMT-47" d="M 2222 322  Q 2013 103 1813 7  Q 1613 -88 1381 -88  Q 913 -88 563 304  Q 213 697 213 1313  Q 213 1928 600 2439  Q 988 2950 1597 2950  Q 1975 2950 2222 2709  L 2222 3238  Q 2222 3728 2198 3840  Q 2175 3953 2125 3993  Q 2075 4034 2000 4034  Q 1919 4034 1784 3984  L 1744 4094  L 2597 4444  L 2738 4444  L 2738 1134  Q 2738 631 2761 520  Q 2784 409 2836 365  Q 2888 322 2956 322  Q 3041 322 3181 375  L 3216 266  L 2366 -88  L 2222 -88  L 2222 322  z M 2222 541  L 2222 2016  Q 2203 2228 2109 2403  Q 2016 2578 1861 2667  Q 1706 2756 1559 2756  Q 1284 2756 1069 2509  Q 784 2184 784 1559  Q 784 928 1059 592  Q 1334 256 1672 256  Q 1956 256 2222 541  z " transform="scale(0.015625)" />
    <path id="TimesNewRomanPSMT-37" d="M 3703 4238  L 3750 3244  L 3631 3244  Q 3597 3506 3538 3619  Q 3441 3800 3280 3886  Q 3119 3972 2856 3972  L 2259 3972  L 2259 734  Q 2259 344 2344 247  Q 2463 116 2709 116  L 2856 116  L 2856 0  L 1059 0  L 1059 116  L 1209 116  Q 1478 116 1591 278  Q 1659 378 1659 734  L 1659 3972  L 1150 3972  Q 853 3972 728 3928  Q 566 3869 450 3700  Q 334 3531 313 3244  L 194 3244  L 244 4238  L 3703 4238  z " transform="scale(0.015625)" />
     <path id="TimesNewRomanPSMT-45" d="M 984 2369  Q 1400 2947 1881 2947  Q 2322 2947 2650 2570  Q 2978 2194 2978 1541  Q 2978 778 2472 313  Q 2038 -88 1503 -88  Q 1253 -88 995 3  Q 738 94 469 275  L 469 3241  Q 469 3728 445 3840  Q 422 3953 372 3993  Q 322 4034 247 4034  Q 159 4034 28 3984  L -16 4094  L 844 4444  L 984 4444  L 984 2369  z M 984 2169  L 984 456  Q 1144 300 1314 220  Q 1484 141 1663 141  Q 1947 141 2192 453  Q 2438 766 2438 1363  Q 2438 1913 2192 2208  Q 1947 2503 1634 2503  Q 1469 2503 1303 2419  Q 1178 2356 984 2169  z " transform="scale(0.015625)" />
    <clipPath id="pa220a6564b">
   <rect x="52.92" y="104.976" width="441" height="182.736" />
  </clipPath>
 </defs>
 <g id="figure_1">
  <g id="patch_1">
   <path d="M 0 388.8  L 504 388.8  L 504 0  L 0 0  z " style="fill: #ffffff" />
  </g>
  <g id="leaderboard-axis-standard-libero-0-100" data-axis-left="52.92" data-axis-width="441" data-axis-max="100">
   <g id="patch_2">
    <path d="M 52.92 287.712  L 493.92 287.712  L 493.92 104.976  L 52.92 104.976  z " style="fill: #ffffff" />
   </g>
   <g id="matplotlib.axis_1">
    <g id="xtick_1">
     <g id="line2d_1" />
     </g>
    <g id="xtick_2">
     <g id="line2d_2" />
     </g>
    <g id="xtick_3">
     <g id="line2d_3" />
     </g>
    <g id="xtick_4">
     <g id="line2d_4" />
     </g>
    <g id="xtick_5">
     <g id="line2d_5" />
     </g>
   </g>
   <g id="matplotlib.axis_2">
    <g id="ytick_1">
     <g id="line2d_6">
      <path d="M 52.92 287.712  L 493.92 287.712  " clip-path="url(#pa220a6564b)" style="fill: none; stroke: #e7eaf0; stroke-width: 0.8; stroke-linecap: square" />
     </g>
     <g id="line2d_7" />
     <g id="leaderboard-tick-standard-libero-0">
      <!-- 0% -->
      <g style="fill: #526078" transform="translate(22.926562 293.952234) scale(0.18 -0.18)">
       <use xlink:href="#TimesNewRomanPSMT-13" />
       <use xlink:href="#TimesNewRomanPSMT-8" transform="translate(50 0)" />
      </g>
     </g>
    </g>
    <g id="ytick_2">
     <g id="line2d_8">
      <path d="M 52.92 251.1648  L 493.92 251.1648  " clip-path="url(#pa220a6564b)" style="fill: none; stroke: #e7eaf0; stroke-width: 0.8; stroke-linecap: square" />
     </g>
     <g id="line2d_9" />
     <g id="leaderboard-tick-standard-libero-20">
      <!-- 20% -->
      <g style="fill: #526078" transform="translate(13.926562 257.405034) scale(0.18 -0.18)">
       <use xlink:href="#TimesNewRomanPSMT-15" />
       <use xlink:href="#TimesNewRomanPSMT-13" transform="translate(50 0)" />
       <use xlink:href="#TimesNewRomanPSMT-8" transform="translate(100 0)" />
      </g>
     </g>
    </g>
    <g id="ytick_3">
     <g id="line2d_10">
      <path d="M 52.92 214.6176  L 493.92 214.6176  " clip-path="url(#pa220a6564b)" style="fill: none; stroke: #e7eaf0; stroke-width: 0.8; stroke-linecap: square" />
     </g>
     <g id="line2d_11" />
     <g id="leaderboard-tick-standard-libero-40">
      <!-- 40% -->
      <g style="fill: #526078" transform="translate(13.926562 220.857834) scale(0.18 -0.18)">
       <use xlink:href="#TimesNewRomanPSMT-17" />
       <use xlink:href="#TimesNewRomanPSMT-13" transform="translate(50 0)" />
       <use xlink:href="#TimesNewRomanPSMT-8" transform="translate(100 0)" />
      </g>
     </g>
    </g>
    <g id="ytick_4">
     <g id="line2d_12">
      <path d="M 52.92 178.0704  L 493.92 178.0704  " clip-path="url(#pa220a6564b)" style="fill: none; stroke: #e7eaf0; stroke-width: 0.8; stroke-linecap: square" />
     </g>
     <g id="line2d_13" />
     <g id="leaderboard-tick-standard-libero-60">
      <!-- 60% -->
      <g style="fill: #526078" transform="translate(13.926562 184.310634) scale(0.18 -0.18)">
       <use xlink:href="#TimesNewRomanPSMT-19" />
       <use xlink:href="#TimesNewRomanPSMT-13" transform="translate(50 0)" />
       <use xlink:href="#TimesNewRomanPSMT-8" transform="translate(100 0)" />
      </g>
     </g>
    </g>
    <g id="ytick_5">
     <g id="line2d_14">
      <path d="M 52.92 141.5232  L 493.92 141.5232  " clip-path="url(#pa220a6564b)" style="fill: none; stroke: #e7eaf0; stroke-width: 0.8; stroke-linecap: square" />
     </g>
     <g id="line2d_15" />
     <g id="leaderboard-tick-standard-libero-80">
      <!-- 80% -->
      <g style="fill: #526078" transform="translate(13.926562 147.763434) scale(0.18 -0.18)">
       <use xlink:href="#TimesNewRomanPSMT-1b" />
       <use xlink:href="#TimesNewRomanPSMT-13" transform="translate(50 0)" />
       <use xlink:href="#TimesNewRomanPSMT-8" transform="translate(100 0)" />
      </g>
     </g>
    </g>
    <g id="ytick_6">
     <g id="line2d_16">
      <path d="M 52.92 104.976  L 493.92 104.976  " clip-path="url(#pa220a6564b)" style="fill: none; stroke: #e7eaf0; stroke-width: 0.8; stroke-linecap: square" />
     </g>
     <g id="line2d_17" />
     <g id="leaderboard-tick-standard-libero-100">
      <!-- 100% -->
      <g style="fill: #526078" transform="translate(4.926562 111.216234) scale(0.18 -0.18)">
       <use xlink:href="#TimesNewRomanPSMT-14" />
       <use xlink:href="#TimesNewRomanPSMT-13" transform="translate(50 0)" />
       <use xlink:href="#TimesNewRomanPSMT-13" transform="translate(100 0)" />
       <use xlink:href="#TimesNewRomanPSMT-8" transform="translate(150 0)" />
      </g>
     </g>
    </g>
   </g>
   <g id="patch_3">
    <path d="M 52.92 287.712  L 493.92 287.712  " style="fill: none; stroke: #e7eaf0; stroke-width: 0.8; stroke-linejoin: miter; stroke-linecap: square" />
   </g>
   <g class="rpent-bar-record" data-record-id="standard-libero--atomvla" data-center-x="105.099389"><g id="leaderboard-bar-standard-libero-0">
    <path d="M 89.108931 287.712  L 121.089847 287.712  L 121.089847 110.45808  L 89.108931 110.45808  z " clip-path="url(#pa220a6564b)" style="fill: #aeb7c6" />
   </g>
   <g id="leaderboard-value-standard-libero-0">
    <!-- 97.0% -->
    <g style="fill: #182238" transform="translate(73.474389 97.494213) scale(0.23 -0.23)">
     <use xlink:href="#TimesNewRomanPS-BoldMT-1c" />
     <use xlink:href="#TimesNewRomanPS-BoldMT-1a" transform="translate(50 0)" />
     <use xlink:href="#TimesNewRomanPS-BoldMT-11" transform="translate(100 0)" />
     <use xlink:href="#TimesNewRomanPS-BoldMT-13" transform="translate(125 0)" />
     <use xlink:href="#TimesNewRomanPS-BoldMT-8" transform="translate(175 0)" />
    </g>
   </g>
   <g id="leaderboard-model-standard-libero-0">
      <!-- AtomVLA -->
      <g style="fill: #182238" transform="translate(63.936186 313.885828) scale(0.19 -0.19)">
       <use xlink:href="#TimesNewRomanPSMT-24" />
       <use xlink:href="#TimesNewRomanPSMT-57" transform="translate(72.21875 0)" />
       <use xlink:href="#TimesNewRomanPSMT-52" transform="translate(100 0)" />
       <use xlink:href="#TimesNewRomanPSMT-50" transform="translate(150 0)" />
       <use xlink:href="#TimesNewRomanPSMT-39" transform="translate(227.78125 0)" />
       <use xlink:href="#TimesNewRomanPSMT-2f" transform="translate(300 0)" />
       <use xlink:href="#TimesNewRomanPSMT-24" transform="translate(361.078125 0)" />
      </g>
     </g>
    </g><g class="rpent-bar-record" data-record-id="standard-libero--opus-4-8-max" data-center-x="189.259695"><g id="leaderboard-bar-standard-libero-1">
    <path d="M 173.269237 287.712  L 205.250153 287.712  L 205.250153 112.28544  L 173.269237 112.28544  z " clip-path="url(#pa220a6564b)" style="fill: #7842b1" />
   </g>
   <g id="leaderboard-value-standard-libero-1">
    <!-- 96.0% -->
    <g style="fill: #182238" transform="translate(157.634695 99.321573) scale(0.23 -0.23)">
     <use xlink:href="#TimesNewRomanPS-BoldMT-1c" />
     <use xlink:href="#TimesNewRomanPS-BoldMT-19" transform="translate(50 0)" />
     <use xlink:href="#TimesNewRomanPS-BoldMT-11" transform="translate(100 0)" />
     <use xlink:href="#TimesNewRomanPS-BoldMT-13" transform="translate(125 0)" />
     <use xlink:href="#TimesNewRomanPS-BoldMT-8" transform="translate(175 0)" />
    </g>
   </g>
   <g id="leaderboard-model-standard-libero-1">
      <!-- Opus-4.8 -->
      <g style="fill: #182238" transform="translate(154.163132 315.3099) scale(0.19 -0.19)">
       <use xlink:href="#TimesNewRomanPSMT-32" />
       <use xlink:href="#TimesNewRomanPSMT-53" transform="translate(72.21875 0)" />
       <use xlink:href="#TimesNewRomanPSMT-58" transform="translate(122.21875 0)" />
       <use xlink:href="#TimesNewRomanPSMT-56" transform="translate(172.21875 0)" />
       <use xlink:href="#TimesNewRomanPSMT-10" transform="translate(211.140625 0)" />
       <use xlink:href="#TimesNewRomanPSMT-17" transform="translate(244.4375 0)" />
       <use xlink:href="#TimesNewRomanPSMT-11" transform="translate(294.4375 0)" />
       <use xlink:href="#TimesNewRomanPSMT-1b" transform="translate(319.4375 0)" />
      </g>
      <!-- max -->
      <g style="fill: #182238" transform="translate(172.903367 335.432459) scale(0.19 -0.19)">
       <use xlink:href="#TimesNewRomanPSMT-50" />
       <use xlink:href="#TimesNewRomanPSMT-44" transform="translate(77.78125 0)" />
       <use xlink:href="#TimesNewRomanPSMT-5b" transform="translate(122.171875 0)" />
      </g>
     </g>
    </g><g class="rpent-bar-record" data-record-id="standard-libero--pi-rlinf" data-center-x="273.420000"><g id="leaderboard-bar-standard-libero-2">
    <path d="M 257.429542 287.712  L 289.410458 287.712  L 289.410458 113.564592  L 257.429542 113.564592  z " clip-path="url(#pa220a6564b)" style="fill: #aeb7c6" />
   </g>
   <g id="leaderboard-value-standard-libero-2">
    <!-- 95.3% -->
    <g style="fill: #182238" transform="translate(241.795 100.600725) scale(0.23 -0.23)">
     <use xlink:href="#TimesNewRomanPS-BoldMT-1c" />
     <use xlink:href="#TimesNewRomanPS-BoldMT-18" transform="translate(50 0)" />
     <use xlink:href="#TimesNewRomanPS-BoldMT-11" transform="translate(100 0)" />
     <use xlink:href="#TimesNewRomanPS-BoldMT-16" transform="translate(125 0)" />
     <use xlink:href="#TimesNewRomanPS-BoldMT-8" transform="translate(175 0)" />
    </g>
   </g>
   <g id="leaderboard-model-standard-libero-2">
      <!-- π_RLinf -->
      <g style="fill: #182238" transform="translate(241.182344 313.905125) scale(0.19 -0.19)">
       <use xlink:href="#TimesNewRomanPSMT-28c" />
       <use xlink:href="#TimesNewRomanPSMT-42" transform="translate(50.484375 0)" />
       <use xlink:href="#TimesNewRomanPSMT-35" transform="translate(100.484375 0)" />
       <use xlink:href="#TimesNewRomanPSMT-2f" transform="translate(167.1875 0)" />
       <use xlink:href="#TimesNewRomanPSMT-4c" transform="translate(228.265625 0)" />
       <use xlink:href="#TimesNewRomanPSMT-51" transform="translate(256.046875 0)" />
       <use xlink:href="#TimesNewRomanPSMT-49" transform="translate(306.046875 0)" />
      </g>
     </g>
    </g><g class="rpent-bar-record" data-record-id="standard-libero--pi0" data-center-x="357.580305"><g id="leaderboard-bar-standard-libero-3">
    <path d="M 341.589847 287.712  L 373.570763 287.712  L 373.570763 115.574688  L 341.589847 115.574688  z " clip-path="url(#pa220a6564b)" style="fill: #aeb7c6" />
   </g>
   <g id="leaderboard-value-standard-libero-3">
    <!-- 94.2% -->
    <g style="fill: #182238" transform="translate(325.955305 102.610821) scale(0.23 -0.23)">
     <use xlink:href="#TimesNewRomanPS-BoldMT-1c" />
     <use xlink:href="#TimesNewRomanPS-BoldMT-17" transform="translate(50 0)" />
     <use xlink:href="#TimesNewRomanPS-BoldMT-11" transform="translate(100 0)" />
     <use xlink:href="#TimesNewRomanPS-BoldMT-15" transform="translate(125 0)" />
     <use xlink:href="#TimesNewRomanPS-BoldMT-8" transform="translate(175 0)" />
    </g>
   </g>
   <g id="leaderboard-model-standard-libero-3">
      <!-- π0 -->
      <g style="fill: #182238" transform="translate(348.03429 313.885828) scale(0.19 -0.19)">
       <use xlink:href="#TimesNewRomanPSMT-28c" />
       <use xlink:href="#TimesNewRomanPSMT-13" transform="translate(50.484375 0)" />
      </g>
     </g>
    </g><g class="rpent-bar-record" data-record-id="standard-libero--openvla" data-center-x="441.740611"><g id="leaderboard-bar-standard-libero-4">
    <path d="M 425.750153 287.712  L 457.731069 287.712  L 457.731069 147.91896  L 425.750153 147.91896  z " clip-path="url(#pa220a6564b)" style="fill: #aeb7c6" />
   </g>
   <g id="leaderboard-value-standard-libero-4">
    <!-- 76.5% -->
    <g style="fill: #182238" transform="translate(410.115611 134.955093) scale(0.23 -0.23)">
     <use xlink:href="#TimesNewRomanPS-BoldMT-1a" />
     <use xlink:href="#TimesNewRomanPS-BoldMT-19" transform="translate(50 0)" />
     <use xlink:href="#TimesNewRomanPS-BoldMT-11" transform="translate(100 0)" />
     <use xlink:href="#TimesNewRomanPS-BoldMT-18" transform="translate(125 0)" />
     <use xlink:href="#TimesNewRomanPS-BoldMT-8" transform="translate(175 0)" />
    </g>
   </g>
  <g id="leaderboard-model-standard-libero-4">
      <!-- OpenVLA -->
      <g style="fill: #182238" transform="translate(401.638736 313.885828) scale(0.19 -0.19)">
       <use xlink:href="#TimesNewRomanPSMT-32" />
       <use xlink:href="#TimesNewRomanPSMT-53" transform="translate(72.21875 0)" />
       <use xlink:href="#TimesNewRomanPSMT-48" transform="translate(122.21875 0)" />
       <use xlink:href="#TimesNewRomanPSMT-51" transform="translate(166.609375 0)" />
       <use xlink:href="#TimesNewRomanPSMT-39" transform="translate(216.609375 0)" />
       <use xlink:href="#TimesNewRomanPSMT-2f" transform="translate(288.828125 0)" />
       <use xlink:href="#TimesNewRomanPSMT-24" transform="translate(349.90625 0)" />
      </g>
     </g>
    </g></g>
  <g id="text_1">
   <!-- Standard LIBERO -->
   <g style="fill: #182238" transform="translate(17.64 31.216398) scale(0.26 -0.26)">
    <use xlink:href="#TimesNewRomanPS-BoldMT-36" />
    <use xlink:href="#TimesNewRomanPS-BoldMT-57" transform="translate(55.609375 0)" />
    <use xlink:href="#TimesNewRomanPS-BoldMT-44" transform="translate(88.90625 0)" />
    <use xlink:href="#TimesNewRomanPS-BoldMT-51" transform="translate(138.90625 0)" />
    <use xlink:href="#TimesNewRomanPS-BoldMT-47" transform="translate(194.515625 0)" />
    <use xlink:href="#TimesNewRomanPS-BoldMT-44" transform="translate(250.125 0)" />
    <use xlink:href="#TimesNewRomanPS-BoldMT-55" transform="translate(300.125 0)" />
    <use xlink:href="#TimesNewRomanPS-BoldMT-47" transform="translate(344.515625 0)" />
    <use xlink:href="#TimesNewRomanPS-BoldMT-3" transform="translate(400.125 0)" />
    <use xlink:href="#TimesNewRomanPS-BoldMT-2f" transform="translate(425.125 0)" />
    <use xlink:href="#TimesNewRomanPS-BoldMT-2c" transform="translate(491.828125 0)" />
    <use xlink:href="#TimesNewRomanPS-BoldMT-25" transform="translate(530.75 0)" />
    <use xlink:href="#TimesNewRomanPS-BoldMT-28" transform="translate(597.453125 0)" />
    <use xlink:href="#TimesNewRomanPS-BoldMT-35" transform="translate(664.15625 0)" />
    <use xlink:href="#TimesNewRomanPS-BoldMT-32" transform="translate(736.375 0)" />
   </g>
  </g>
  <g id="text_2">
   <!-- Overall · four standard suites -->
   <g style="fill: #526078" transform="translate(17.64 61.793125) scale(0.19 -0.19)">
    <use xlink:href="#TimesNewRomanPSMT-32" />
    <use xlink:href="#TimesNewRomanPSMT-59" transform="translate(72.21875 0)" />
    <use xlink:href="#TimesNewRomanPSMT-48" transform="translate(122.21875 0)" />
    <use xlink:href="#TimesNewRomanPSMT-55" transform="translate(166.609375 0)" />
    <use xlink:href="#TimesNewRomanPSMT-44" transform="translate(199.90625 0)" />
    <use xlink:href="#TimesNewRomanPSMT-4f" transform="translate(244.296875 0)" />
    <use xlink:href="#TimesNewRomanPSMT-4f" transform="translate(272.078125 0)" />
    <use xlink:href="#TimesNewRomanPSMT-3" transform="translate(299.859375 0)" />
    <use xlink:href="#TimesNewRomanPSMT-c2" transform="translate(324.859375 0)" />
    <use xlink:href="#TimesNewRomanPSMT-3" transform="translate(349.859375 0)" />
    <use xlink:href="#TimesNewRomanPSMT-49" transform="translate(374.859375 0)" />
    <use xlink:href="#TimesNewRomanPSMT-52" transform="translate(408.15625 0)" />
    <use xlink:href="#TimesNewRomanPSMT-58" transform="translate(458.15625 0)" />
    <use xlink:href="#TimesNewRomanPSMT-55" transform="translate(508.15625 0)" />
    <use xlink:href="#TimesNewRomanPSMT-3" transform="translate(541.453125 0)" />
    <use xlink:href="#TimesNewRomanPSMT-56" transform="translate(566.453125 0)" />
    <use xlink:href="#TimesNewRomanPSMT-57" transform="translate(605.375 0)" />
    <use xlink:href="#TimesNewRomanPSMT-44" transform="translate(633.15625 0)" />
    <use xlink:href="#TimesNewRomanPSMT-51" transform="translate(677.546875 0)" />
    <use xlink:href="#TimesNewRomanPSMT-47" transform="translate(727.546875 0)" />
    <use xlink:href="#TimesNewRomanPSMT-44" transform="translate(777.546875 0)" />
    <use xlink:href="#TimesNewRomanPSMT-55" transform="translate(821.9375 0)" />
    <use xlink:href="#TimesNewRomanPSMT-47" transform="translate(855.234375 0)" />
    <use xlink:href="#TimesNewRomanPSMT-3" transform="translate(905.234375 0)" />
    <use xlink:href="#TimesNewRomanPSMT-56" transform="translate(930.234375 0)" />
    <use xlink:href="#TimesNewRomanPSMT-58" transform="translate(969.15625 0)" />
    <use xlink:href="#TimesNewRomanPSMT-4c" transform="translate(1019.15625 0)" />
    <use xlink:href="#TimesNewRomanPSMT-57" transform="translate(1046.9375 0)" />
    <use xlink:href="#TimesNewRomanPSMT-48" transform="translate(1074.71875 0)" />
    <use xlink:href="#TimesNewRomanPSMT-56" transform="translate(1119.109375 0)" />
   </g>
  </g>
  <g id="text_3">
   <!-- Table 2 -->
   <g style="fill: #526078" transform="translate(52.92 375.626875) scale(0.16 -0.16)">
    <use xlink:href="#TimesNewRomanPSMT-37" />
    <use xlink:href="#TimesNewRomanPSMT-44" transform="translate(54.09375 0)" />
    <use xlink:href="#TimesNewRomanPSMT-45" transform="translate(98.484375 0)" />
    <use xlink:href="#TimesNewRomanPSMT-4f" transform="translate(148.484375 0)" />
    <use xlink:href="#TimesNewRomanPSMT-48" transform="translate(176.265625 0)" />
    <use xlink:href="#TimesNewRomanPSMT-3" transform="translate(220.65625 0)" />
    <use xlink:href="#TimesNewRomanPSMT-15" transform="translate(245.65625 0)" />
   </g>
  </g>
 </g>
 </svg>
